{"glyphs":{"0":{"ha":772,"x_min":29,"x_max":743,"o":"m 386 933 q 133 797 210 933 q 57 472 57 661 q 133 147 57 282 q 386 11 208 11 q 639 147 563 11 q 715 472 715 283 q 640 798 715 663 q 386 933 564 933 m 386 -17 q 115 126 200 -17 q 29 472 29 269 q 114 819 29 678 q 386 961 199 961 q 658 818 572 961 q 743 472 743 675 q 658 125 743 267 q 386 -17 574 -17 z "},"1":{"ha":772,"x_min":160,"x_max":442,"o":"m 414 908 q 301 806 371 850 q 160 742 232 763 l 160 769 q 296 835 243 797 q 411 944 349 874 l 442 944 l 442 0 l 414 0 l 414 908 z "},"2":{"ha":772,"x_min":76,"x_max":713,"o":"m 713 28 l 713 0 l 76 0 q 115 132 76 75 q 214 237 154 189 q 411 380 274 285 q 604 552 549 475 q 660 707 660 629 q 587 874 660 814 q 397 933 514 933 q 188 853 254 933 q 121 635 121 774 l 93 635 q 171 876 93 792 q 397 961 249 961 q 606 896 525 961 q 688 707 688 831 q 633 544 688 625 q 442 369 578 464 q 248 230 306 274 q 151 136 190 186 q 104 28 111 86 l 713 28 z "},"3":{"ha":772,"x_min":56,"x_max":718,"o":"m 82 651 q 167 882 82 803 q 404 961 251 961 q 615 904 529 961 q 700 729 700 847 q 644 576 700 633 q 497 510 588 518 q 654 437 590 499 q 718 261 718 375 q 625 59 718 135 q 399 -17 532 -17 q 147 72 238 -17 q 56 319 56 160 l 83 319 q 166 91 83 171 q 399 11 249 11 q 605 78 519 11 q 690 261 690 144 q 616 435 690 376 q 419 494 542 494 l 351 494 l 351 522 l 419 522 q 599 572 526 522 q 672 729 672 621 q 594 883 672 833 q 404 933 515 933 q 188 863 265 933 q 110 651 110 792 l 82 651 z "},"4":{"ha":772,"x_min":47,"x_max":725,"o":"m 526 906 l 75 274 l 526 274 l 526 906 m 47 246 l 47 279 l 519 944 l 554 944 l 554 274 l 725 274 l 725 246 l 554 246 l 554 0 l 526 0 l 526 246 l 47 246 z "},"5":{"ha":772,"x_min":51,"x_max":706,"o":"m 204 917 l 118 513 q 226 608 158 575 q 379 640 294 640 q 615 549 525 640 q 706 314 706 457 q 616 74 706 165 q 379 -17 526 -17 q 140 68 229 -17 q 51 303 51 153 l 79 303 q 159 88 79 165 q 379 11 239 11 q 597 93 517 11 q 678 314 678 175 q 596 529 678 446 q 379 613 514 613 q 224 576 293 613 q 115 468 154 539 l 81 468 l 182 944 l 667 944 l 667 917 l 204 917 z "},"6":{"ha":772,"x_min":54,"x_max":718,"o":"m 392 608 q 181 521 268 608 q 93 310 93 433 q 181 99 93 186 q 392 11 268 11 q 603 99 515 11 q 690 310 690 186 q 603 521 690 433 q 392 608 515 608 m 674 722 q 574 885 649 838 q 408 933 499 933 q 205 851 278 933 q 106 650 132 768 q 81 399 81 532 q 192 568 104 500 q 392 636 279 636 q 619 544 521 636 q 718 310 718 451 q 622 77 718 171 q 392 -17 525 -17 q 228 26 300 -17 q 118 129 157 69 q 67 265 79 189 q 54 446 54 342 q 137 809 54 657 q 410 961 219 961 q 608 894 529 961 q 701 722 686 826 l 674 722 z "},"7":{"ha":772,"x_min":85,"x_max":688,"o":"m 85 917 l 85 944 l 688 944 l 688 907 q 370 483 479 699 q 261 0 261 268 l 233 0 q 342 489 233 265 q 657 917 451 713 l 85 917 z "},"8":{"ha":772,"x_min":43,"x_max":729,"o":"m 386 503 q 158 447 246 503 q 71 264 71 392 q 160 74 71 136 q 386 11 250 11 q 613 73 524 11 q 701 264 701 135 q 613 447 701 390 q 386 503 525 503 m 729 264 q 633 53 729 124 q 386 -17 536 -17 q 140 54 238 -17 q 43 264 43 125 q 108 440 43 372 q 285 518 172 507 q 145 586 200 531 q 90 722 90 642 q 172 902 90 843 q 386 961 253 961 q 600 902 518 961 q 682 722 682 843 q 627 587 682 642 q 488 521 572 532 q 664 440 599 508 q 729 264 729 372 m 386 933 q 194 884 269 933 q 118 722 118 835 q 199 579 118 628 q 386 531 281 531 q 574 579 493 531 q 654 722 654 628 q 578 883 654 833 q 386 933 501 933 z "},"9":{"ha":772,"x_min":54,"x_max":719,"o":"m 99 222 q 199 59 124 107 q 364 11 274 11 q 567 94 494 11 q 666 294 640 176 q 692 546 692 413 q 581 376 668 444 q 381 308 493 308 q 153 401 251 308 q 54 635 54 493 q 151 867 54 774 q 381 961 247 961 q 544 918 472 961 q 654 815 615 875 q 706 680 693 756 q 719 499 719 604 q 636 135 719 288 q 363 -17 553 -17 q 165 51 243 -17 q 71 222 86 118 l 99 222 m 381 933 q 169 846 257 933 q 82 635 82 758 q 169 424 82 511 q 381 336 257 336 q 592 424 504 336 q 679 635 679 511 q 592 846 679 758 q 381 933 504 933 z "}," ":{"ha":386,"x_min":0,"x_max":0,"o":""},"!":{"ha":257,"x_min":115,"x_max":143,"o":"m 115 0 l 115 136 l 143 136 l 143 0 l 115 0 m 115 253 l 115 992 l 143 992 l 143 253 l 115 253 z "},"\"":{"ha":386,"x_min":101,"x_max":285,"o":"m 129 679 l 101 679 l 101 992 l 129 992 l 129 679 m 285 679 l 257 679 l 257 992 l 285 992 l 285 679 z "},"#":{"ha":772,"x_min":49,"x_max":724,"o":"m 340 944 l 297 619 l 535 619 l 578 944 l 606 944 l 563 619 l 724 619 l 724 592 l 556 592 l 522 346 l 685 346 l 685 318 l 517 318 l 474 0 l 446 0 l 489 318 l 250 318 l 207 0 l 179 0 l 222 318 l 49 318 l 49 346 l 229 346 l 263 592 l 88 592 l 88 619 l 269 619 l 313 944 l 340 944 m 257 346 l 494 346 l 528 592 l 290 592 l 257 346 z "},"$":{"ha":772,"x_min":8,"x_max":746,"o":"m 368 988 q 156 933 246 988 q 65 760 65 879 q 139 606 65 649 q 368 529 213 564 l 368 988 m 36 329 q 125 85 36 165 q 368 6 214 6 l 368 500 q 190 548 251 526 q 83 619 129 569 q 38 760 38 669 q 135 954 38 893 q 368 1015 232 1015 l 368 1075 l 396 1075 l 396 1014 q 635 940 544 1014 q 726 714 726 867 l 699 714 q 616 920 699 854 q 396 986 533 986 l 396 522 l 407 519 q 606 463 551 482 q 703 392 660 444 q 746 243 746 340 q 642 44 746 113 q 396 -24 538 -24 l 396 -146 l 368 -146 l 368 -22 q 106 67 204 -22 q 8 329 8 156 l 36 329 m 396 4 q 623 65 528 4 q 718 244 718 125 q 641 411 718 368 q 396 493 564 454 l 396 4 z "},"%":{"ha":951,"x_min":29,"x_max":922,"o":"m 707 11 q 845 70 796 11 q 894 218 894 129 q 848 374 894 317 q 707 431 801 431 q 569 373 615 431 q 524 218 524 315 q 570 69 524 128 q 707 11 617 11 m 240 961 q 399 895 343 961 q 456 722 456 829 q 398 554 456 622 q 240 486 340 486 q 83 553 138 486 q 29 721 29 621 q 85 895 29 829 q 240 961 140 961 m 240 514 q 378 573 329 514 q 428 721 428 632 q 381 876 428 819 q 240 933 335 933 q 103 876 149 933 q 57 721 57 818 q 103 572 57 631 q 240 514 150 514 m 707 458 q 866 392 810 458 q 922 219 922 326 q 865 51 922 119 q 707 -17 807 -17 q 550 51 604 -17 q 496 218 496 118 q 551 392 496 326 q 707 458 607 458 m 783 992 l 815 992 l 154 -47 l 122 -47 l 783 992 z "},"&":{"ha":797,"x_min":61,"x_max":794,"o":"m 351 561 q 506 681 453 631 q 558 807 558 732 q 508 922 558 879 q 385 964 458 964 q 259 922 310 964 q 208 810 208 881 q 351 561 208 746 m 344 525 q 152 383 215 443 q 89 222 89 324 q 165 63 89 121 q 344 4 240 4 q 508 51 440 4 q 617 183 575 99 l 344 525 m 794 0 l 758 0 l 635 157 q 517 26 590 75 q 344 -24 444 -24 q 147 44 233 -24 q 61 222 61 113 q 145 417 61 349 q 328 547 229 486 q 231 679 281 608 q 181 807 181 750 q 241 944 181 897 q 383 992 301 992 q 528 942 469 992 q 586 807 586 892 q 540 678 586 724 q 368 540 493 633 l 629 210 q 653 286 643 242 q 663 385 663 331 l 690 385 q 649 185 690 279 l 794 0 z "},"'":{"ha":232,"x_min":103,"x_max":131,"o":"m 103 992 l 131 992 l 131 679 l 103 679 l 103 992 z "},"(":{"ha":308,"x_min":94,"x_max":285,"o":"m 283 1015 q 164 713 206 869 q 122 392 122 556 q 285 -246 122 50 l 257 -246 q 133 67 172 -82 q 94 392 94 215 q 135 711 94 554 q 256 1015 176 868 l 283 1015 z "},")":{"ha":308,"x_min":24,"x_max":214,"o":"m 25 -246 q 144 57 103 -100 q 186 378 186 214 q 24 1015 186 719 l 51 1015 q 175 703 136 851 q 214 378 214 554 q 173 58 214 215 q 53 -246 132 -99 l 25 -246 z "},"*":{"ha":489,"x_min":44,"x_max":444,"o":"m 256 992 l 256 797 l 439 857 l 444 831 l 264 771 l 379 619 l 357 603 l 242 753 l 125 608 l 103 626 l 225 771 l 44 831 l 53 857 l 228 797 l 228 992 l 256 992 z "},"+":{"ha":833,"x_min":67,"x_max":767,"o":"m 403 703 l 431 703 l 431 365 l 767 365 l 767 338 l 431 338 l 431 0 l 403 0 l 403 338 l 67 338 l 67 365 l 403 365 l 403 703 z "},",":{"ha":386,"x_min":146,"x_max":207,"o":"m 207 136 l 207 0 q 194 -104 207 -67 q 146 -165 181 -142 l 146 -137 q 179 0 179 -104 l 179 136 l 207 136 z "},"-":{"ha":463,"x_min":110,"x_max":353,"o":"m 110 386 l 353 386 l 353 358 l 110 358 l 110 386 z "},".":{"ha":386,"x_min":179,"x_max":207,"o":"m 207 0 l 179 0 l 179 136 l 207 136 l 207 0 z "},"/":{"ha":463,"x_min":-10,"x_max":472,"o":"m -10 -24 l 444 1015 l 472 1015 l 18 -24 l -10 -24 z "},":":{"ha":386,"x_min":179,"x_max":207,"o":"m 179 0 l 179 136 l 207 136 l 207 0 l 179 0 m 179 578 l 179 714 l 207 714 l 207 578 l 179 578 z "},";":{"ha":386,"x_min":146,"x_max":207,"o":"m 207 0 q 194 -104 207 -67 q 146 -165 181 -142 l 146 -137 q 179 0 179 -104 l 179 136 l 207 136 l 207 0 m 179 578 l 179 714 l 207 714 l 207 578 l 179 578 z "},"<":{"ha":833,"x_min":64,"x_max":769,"o":"m 769 -11 l 64 335 l 64 368 l 769 714 l 769 685 l 89 351 l 769 18 l 769 -11 z "},"=":{"ha":833,"x_min":67,"x_max":767,"o":"m 67 472 l 67 500 l 767 500 l 767 472 l 67 472 m 67 203 l 67 231 l 767 231 l 767 203 l 67 203 z "},">":{"ha":833,"x_min":64,"x_max":769,"o":"m 744 351 l 64 685 l 64 714 l 769 368 l 769 335 l 64 -11 l 64 18 l 744 351 z "},"?":{"ha":694,"x_min":49,"x_max":624,"o":"m 49 685 q 127 925 49 835 q 350 1015 206 1015 q 547 954 469 1015 q 624 785 624 893 q 588 643 624 694 q 488 536 551 592 q 379 403 408 460 q 350 253 350 347 l 322 253 q 350 408 322 347 q 437 526 378 469 q 535 621 496 583 q 596 785 596 696 q 528 934 596 881 q 350 988 460 988 q 146 906 215 988 q 76 685 76 825 l 49 685 m 322 0 l 322 136 l 350 136 l 350 0 l 322 0 z "},"@":{"ha":1111,"x_min":79,"x_max":1032,"o":"m 776 633 q 708 729 758 700 q 593 758 657 758 q 383 635 469 758 q 297 385 297 513 q 344 260 297 310 q 464 211 390 211 q 586 249 529 211 q 678 378 643 286 l 776 633 m 825 760 l 854 760 l 700 360 q 683 308 690 333 q 676 265 676 282 q 735 211 676 211 q 915 319 826 211 q 1004 571 1004 426 q 885 852 1004 743 q 582 961 767 961 q 244 824 381 961 q 107 490 107 688 q 243 137 107 263 q 582 11 379 11 q 810 72 704 11 q 985 231 917 132 l 1017 231 q 830 51 949 119 q 582 -17 711 -17 q 228 113 376 -17 q 79 490 79 242 q 226 847 79 704 q 582 989 372 989 q 903 874 774 989 q 1032 571 1032 760 q 935 300 1032 417 q 732 183 839 183 q 672 203 694 183 q 649 256 649 224 q 650 271 649 265 q 563 203 614 224 q 458 183 513 183 q 324 242 378 183 q 269 385 269 300 q 365 656 269 526 q 599 786 460 786 q 718 754 665 786 q 789 668 771 722 l 825 760 z "},"A":{"ha":799,"x_min":-17,"x_max":814,"o":"m 642 354 l 406 964 l 158 354 l 642 354 m 147 326 l 15 0 l -17 0 l 386 992 l 422 992 l 814 0 l 783 0 l 653 326 l 147 326 z "},"B":{"ha":849,"x_min":65,"x_max":801,"o":"m 93 28 l 488 28 q 694 89 614 28 q 774 268 774 150 q 692 446 774 389 q 492 503 611 503 l 93 503 l 93 28 m 65 992 l 492 992 q 692 928 614 992 q 771 744 771 864 q 710 585 771 653 q 561 518 650 518 q 731 448 661 515 q 801 269 801 381 q 712 69 801 139 q 475 0 622 0 l 65 0 l 65 992 m 93 531 l 492 531 q 670 586 597 531 q 743 744 743 642 q 673 908 743 851 q 492 964 603 964 l 93 964 l 93 531 z "},"C":{"ha":951,"x_min":35,"x_max":919,"o":"m 919 389 q 780 89 893 201 q 483 -24 667 -24 q 160 119 285 -24 q 35 488 35 263 q 151 856 35 697 q 501 1015 267 1015 q 789 910 681 1015 q 897 694 897 804 l 869 694 q 758 899 860 810 q 501 988 657 988 q 171 831 279 988 q 63 488 63 675 q 176 146 63 288 q 483 4 290 4 q 762 110 656 4 q 892 389 868 217 l 919 389 z "},"D":{"ha":900,"x_min":75,"x_max":844,"o":"m 75 992 l 422 992 q 721 877 597 992 q 844 496 844 763 q 710 124 844 247 q 379 0 576 0 l 75 0 l 75 992 m 103 28 l 386 28 q 695 147 574 28 q 817 496 817 267 q 702 857 817 750 q 415 964 588 964 l 103 964 l 103 28 z "},"E":{"ha":746,"x_min":75,"x_max":739,"o":"m 103 28 l 739 28 l 739 0 l 75 0 l 75 992 l 733 992 l 733 964 l 103 964 l 103 531 l 696 531 l 696 503 l 103 503 l 103 28 z "},"F":{"ha":668,"x_min":75,"x_max":686,"o":"m 103 531 l 631 531 l 631 503 l 103 503 l 103 0 l 75 0 l 75 992 l 686 992 l 686 964 l 103 964 l 103 531 z "},"G":{"ha":1003,"x_min":44,"x_max":936,"o":"m 524 436 l 524 464 l 936 464 l 936 -1 l 908 -1 l 908 246 q 761 49 868 121 q 510 -24 654 -24 q 166 123 288 -24 q 44 496 44 269 q 170 868 44 721 q 510 1015 296 1015 q 786 925 675 1015 q 921 682 897 835 l 893 682 q 765 905 867 822 q 510 988 663 988 q 191 847 310 988 q 72 496 72 706 q 188 144 72 283 q 514 4 303 4 q 794 113 681 4 q 908 385 908 221 l 908 436 l 524 436 z "},"H":{"ha":900,"x_min":75,"x_max":825,"o":"m 103 503 l 103 0 l 75 0 l 75 992 l 103 992 l 103 531 l 797 531 l 797 992 l 825 992 l 825 0 l 797 0 l 797 503 l 103 503 z "},"I":{"ha":178,"x_min":75,"x_max":103,"o":"m 75 992 l 103 992 l 103 0 l 75 0 l 75 992 z "},"J":{"ha":643,"x_min":25,"x_max":561,"o":"m 533 992 l 561 992 l 561 258 q 497 51 561 126 q 289 -24 432 -24 q 90 51 156 -24 q 25 247 25 125 l 25 307 l 53 307 l 53 247 q 289 4 53 4 q 474 65 414 4 q 533 279 533 126 l 533 992 z "},"K":{"ha":824,"x_min":75,"x_max":860,"o":"m 103 351 l 103 0 l 75 0 l 75 992 l 103 992 l 103 389 l 790 992 l 832 992 l 353 569 l 860 0 l 822 0 l 331 553 l 103 351 z "},"L":{"ha":668,"x_min":75,"x_max":682,"o":"m 682 28 l 682 0 l 75 0 l 75 992 l 103 992 l 103 28 l 682 28 z "},"M":{"ha":1083,"x_min":75,"x_max":1008,"o":"m 963 992 l 1008 992 l 1008 0 l 981 0 l 981 957 l 557 0 l 526 0 l 106 957 l 103 0 l 75 0 l 75 992 l 121 992 l 540 36 l 963 992 z "},"N":{"ha":900,"x_min":75,"x_max":825,"o":"m 75 992 l 117 992 l 794 35 l 797 992 l 825 992 l 825 0 l 783 0 l 106 957 l 103 0 l 75 0 l 75 992 z "},"O":{"ha":1001,"x_min":44,"x_max":958,"o":"m 501 4 q 815 141 699 4 q 931 496 931 278 q 815 851 931 714 q 501 988 699 988 q 188 851 304 988 q 72 496 72 714 q 188 141 72 278 q 501 4 304 4 m 501 1015 q 838 867 717 1015 q 958 496 958 718 q 838 125 958 274 q 501 -24 717 -24 q 165 125 286 -24 q 44 496 44 274 q 165 867 44 718 q 501 1015 286 1015 z "},"P":{"ha":797,"x_min":75,"x_max":778,"o":"m 103 479 l 476 479 q 673 544 596 479 q 750 721 750 608 q 476 964 750 964 l 103 964 l 103 479 m 103 0 l 75 0 l 75 992 l 476 992 q 699 922 619 992 q 778 721 778 853 q 691 522 778 593 q 463 451 604 451 l 103 451 l 103 0 z "},"Q":{"ha":1001,"x_min":44,"x_max":971,"o":"m 593 217 l 608 239 l 788 115 q 893 278 856 181 q 931 496 931 376 q 815 851 931 714 q 501 988 699 988 q 188 851 304 988 q 72 496 72 714 q 188 141 72 278 q 501 4 304 4 q 648 28 582 4 q 768 97 714 51 l 593 217 m 793 81 q 663 3 736 31 q 501 -24 590 -24 q 165 125 286 -24 q 44 496 44 274 q 165 867 44 718 q 501 1015 286 1015 q 838 867 717 1015 q 958 496 958 718 q 922 273 958 375 q 811 99 885 171 l 971 -11 l 957 -31 l 793 81 z "},"R":{"ha":849,"x_min":75,"x_max":790,"o":"m 103 493 l 474 493 q 674 555 593 493 q 756 740 756 617 q 691 906 756 849 q 488 964 626 964 l 103 964 l 103 493 m 103 0 l 75 0 l 75 992 l 481 992 q 783 738 783 992 q 728 572 783 639 q 571 482 674 504 q 728 399 689 464 q 767 204 767 335 q 772 80 767 139 q 790 0 776 21 l 760 0 q 744 87 749 28 q 739 208 739 146 q 688 404 739 343 q 476 465 636 465 l 103 465 l 103 0 z "},"S":{"ha":849,"x_min":47,"x_max":785,"o":"m 738 714 q 650 922 738 857 q 415 988 563 988 q 197 934 289 988 q 104 760 104 881 q 194 590 104 621 q 437 520 283 558 q 644 463 590 482 q 742 392 699 444 q 785 243 785 340 q 681 44 785 113 q 435 -24 576 -24 q 151 63 256 -24 q 47 329 47 149 l 75 329 q 170 82 75 160 q 435 4 265 4 q 662 65 567 4 q 757 244 757 125 q 680 413 757 374 q 438 491 603 451 q 175 569 274 531 q 76 760 76 607 q 176 955 76 894 q 415 1015 275 1015 q 669 943 574 1015 q 765 714 765 871 l 738 714 z "},"T":{"ha":694,"x_min":-24,"x_max":718,"o":"m -24 964 l -24 992 l 718 992 l 718 964 l 361 964 l 361 0 l 333 0 l 333 964 l -24 964 z "},"U":{"ha":878,"x_min":75,"x_max":803,"o":"m 775 992 l 803 992 l 803 369 q 709 76 803 175 q 439 -24 615 -24 q 75 369 75 -24 l 75 992 l 103 992 l 103 369 q 186 97 103 190 q 439 4 269 4 q 692 97 608 4 q 775 369 775 189 l 775 992 z "},"V":{"ha":747,"x_min":-25,"x_max":772,"o":"m 744 992 l 772 992 l 394 0 l 364 0 l -25 992 l 3 992 l 378 36 l 744 992 z "},"W":{"ha":1208,"x_min":-14,"x_max":1222,"o":"m 1194 992 l 1222 992 l 935 0 l 897 0 l 606 957 l 317 0 l 279 0 l -14 992 l 15 992 l 296 35 l 585 992 l 625 992 l 915 35 l 1194 992 z "},"X":{"ha":722,"x_min":-37,"x_max":760,"o":"m 708 992 l 743 992 l 382 510 l 760 0 l 725 0 l 363 488 l -3 0 l -37 0 l 344 510 l -17 992 l 19 992 l 363 532 l 708 992 z "},"Y":{"ha":747,"x_min":-42,"x_max":789,"o":"m 756 992 l 789 992 l 388 418 l 388 0 l 360 0 l 360 418 l -42 992 l -7 992 l 374 447 l 756 992 z "},"Z":{"ha":694,"x_min":-26,"x_max":706,"o":"m 706 28 l 706 0 l -26 0 l -26 38 l 667 964 l 13 964 l 13 992 l 694 992 l 694 954 l 1 28 l 706 28 z "},"[":{"ha":308,"x_min":133,"x_max":290,"o":"m 290 1015 l 290 988 l 161 988 l 161 -218 l 290 -218 l 290 -246 l 133 -246 l 133 1015 l 290 1015 z "},"\\":{"ha":463,"x_min":-10,"x_max":472,"o":"m 444 -24 l -10 1015 l 18 1015 l 472 -24 l 444 -24 z "},"]":{"ha":308,"x_min":18,"x_max":175,"o":"m 18 -246 l 18 -218 l 147 -218 l 147 988 l 18 988 l 18 1015 l 175 1015 l 175 -246 l 18 -246 z "},"^":{"ha":833,"x_min":82,"x_max":751,"o":"m 751 315 l 724 315 l 417 917 l 110 315 l 82 315 l 403 944 l 431 944 l 751 315 z "},"_":{"ha":694,"x_min":0,"x_max":694,"o":"m 0 -174 l 0 -104 l 694 -104 l 694 -174 l 0 -174 z "},"`":{"ha":181,"x_min":-53,"x_max":161,"o":"m -53 1015 l -12 1015 l 161 815 l 140 815 l -53 1015 z "},"a":{"ha":668,"x_min":31,"x_max":674,"o":"m 556 419 q 477 377 535 392 q 276 363 419 363 q 117 323 176 363 q 58 176 58 283 q 108 59 58 107 q 267 11 158 11 q 478 93 400 11 q 556 288 556 175 l 556 419 m 75 493 q 147 665 75 599 q 347 731 218 731 q 518 683 453 731 q 583 526 583 636 l 583 72 q 599 35 583 46 q 640 25 615 25 q 657 25 649 25 q 674 28 668 28 l 674 0 l 653 0 q 574 17 593 0 q 556 69 556 35 l 556 163 q 453 36 531 89 q 269 -17 375 -17 q 96 33 161 -17 q 31 176 31 83 q 100 343 31 296 q 276 390 169 390 q 497 410 439 390 q 556 506 556 429 q 515 648 556 593 q 347 703 475 703 q 169 648 235 703 q 103 493 103 593 l 75 493 z "},"b":{"ha":746,"x_min":76,"x_max":697,"o":"m 393 11 q 597 110 525 11 q 669 356 669 210 q 600 599 669 496 q 393 703 531 703 q 183 611 261 703 q 104 356 104 519 q 182 110 104 210 q 393 11 260 11 m 104 514 q 207 672 132 614 q 393 731 282 731 q 616 622 535 731 q 697 356 697 514 q 615 87 697 190 q 393 -17 533 -17 q 210 42 286 -17 q 107 200 135 101 l 104 0 l 76 0 l 76 992 l 104 992 l 104 514 z "},"c":{"ha":694,"x_min":43,"x_max":651,"o":"m 651 243 q 562 53 640 122 q 360 -17 483 -17 q 128 85 213 -17 q 43 342 43 188 q 128 619 43 508 q 376 731 213 731 q 557 669 481 731 q 646 497 633 607 l 618 497 q 535 650 603 597 q 376 703 468 703 q 145 595 219 703 q 71 342 71 488 q 147 107 71 203 q 360 11 224 11 q 546 75 468 11 q 624 243 624 139 l 651 243 z "},"d":{"ha":746,"x_min":39,"x_max":660,"o":"m 343 703 q 137 599 207 703 q 67 356 67 494 q 138 110 67 210 q 343 11 210 11 q 553 111 475 11 q 632 356 632 211 q 554 611 632 519 q 343 703 476 703 m 632 992 l 660 992 l 660 0 l 632 0 l 632 200 q 526 43 601 103 q 343 -17 450 -17 q 122 88 204 -17 q 39 356 39 192 q 120 622 39 514 q 343 731 201 731 q 528 672 454 731 q 629 514 603 614 l 632 992 z "},"e":{"ha":694,"x_min":35,"x_max":660,"o":"m 632 379 q 558 611 632 519 q 350 703 485 703 q 147 614 231 703 q 63 379 63 525 l 632 379 m 63 351 q 131 103 63 196 q 344 11 199 11 q 531 72 457 11 q 624 247 606 133 l 651 247 q 553 55 638 126 q 347 -17 469 -17 q 112 85 189 -17 q 35 357 35 188 q 126 629 35 528 q 347 731 218 731 q 581 622 503 731 q 660 351 660 513 l 63 351 z "},"f":{"ha":283,"x_min":-1,"x_max":321,"o":"m -1 686 l -1 714 l 121 714 l 121 872 q 159 970 121 949 q 261 992 197 992 q 294 990 282 992 q 321 986 307 988 l 321 958 q 256 964 286 964 q 170 941 192 964 q 149 863 149 918 l 149 714 l 303 714 l 303 686 l 149 686 l 149 0 l 121 0 l 121 686 l -1 686 z "},"g":{"ha":721,"x_min":39,"x_max":647,"o":"m 346 703 q 140 610 214 703 q 67 381 67 518 q 137 154 67 242 q 335 67 207 67 q 542 156 467 67 q 618 381 618 246 q 546 608 618 513 q 346 703 474 703 m 619 239 q 515 93 596 147 q 336 39 433 39 q 117 137 194 39 q 39 381 39 235 q 119 631 39 532 q 346 731 200 731 q 521 672 446 731 q 617 524 596 614 l 619 714 l 647 714 l 647 24 q 570 -191 647 -119 q 350 -262 493 -262 q 154 -207 231 -262 q 78 -37 78 -151 l 106 -37 q 174 -186 106 -137 q 349 -235 242 -235 q 550 -171 481 -235 q 619 24 619 -107 l 619 239 z "},"h":{"ha":694,"x_min":76,"x_max":618,"o":"m 76 992 l 104 992 l 104 538 q 194 677 128 624 q 364 731 261 731 q 548 663 478 731 q 618 474 618 596 l 618 0 l 590 0 l 590 469 q 526 644 590 585 q 364 703 461 703 q 172 617 240 703 q 104 404 104 532 l 104 0 l 76 0 l 76 992 z "},"i":{"ha":181,"x_min":76,"x_max":104,"o":"m 104 0 l 76 0 l 76 714 l 104 714 l 104 0 m 104 851 l 76 851 l 76 992 l 104 992 l 104 851 z "},"j":{"ha":181,"x_min":-68,"x_max":104,"o":"m 104 -104 q 65 -220 104 -194 q -68 -246 25 -246 l -68 -218 q 49 -199 21 -218 q 76 -94 76 -179 l 76 714 l 104 714 l 104 -104 m 104 851 l 76 851 l 76 992 l 104 992 l 104 851 z "},"k":{"ha":617,"x_min":76,"x_max":661,"o":"m 104 269 l 104 0 l 76 0 l 76 992 l 104 992 l 104 304 l 597 714 l 638 714 l 310 442 l 661 0 l 624 0 l 289 422 l 104 269 z "},"l":{"ha":181,"x_min":76,"x_max":104,"o":"m 76 992 l 104 992 l 104 0 l 76 0 l 76 992 z "},"m":{"ha":1081,"x_min":76,"x_max":1004,"o":"m 76 714 l 104 714 l 104 538 q 190 676 126 621 q 335 731 253 731 q 475 688 419 731 q 549 564 531 644 q 634 685 572 639 q 778 731 696 731 q 952 663 900 731 q 1004 469 1004 594 l 1004 0 l 976 0 l 976 469 q 933 644 976 585 q 778 703 889 703 q 615 630 676 703 q 554 453 554 557 l 554 0 l 526 0 l 526 458 q 485 638 526 574 q 335 703 444 703 q 168 615 232 703 q 104 404 104 528 l 104 0 l 76 0 l 76 714 z "},"n":{"ha":694,"x_min":76,"x_max":618,"o":"m 76 714 l 104 714 l 104 538 q 194 677 128 624 q 364 731 261 731 q 548 663 478 731 q 618 474 618 596 l 618 0 l 590 0 l 590 469 q 526 644 590 585 q 364 703 461 703 q 172 617 240 703 q 104 404 104 532 l 104 0 l 76 0 l 76 714 z "},"o":{"ha":721,"x_min":39,"x_max":682,"o":"m 361 731 q 597 622 511 731 q 682 357 682 513 q 596 92 682 201 q 360 -17 510 -17 q 124 92 210 -17 q 39 357 39 200 q 124 622 39 513 q 361 731 210 731 m 361 11 q 576 112 499 11 q 654 357 654 213 q 576 601 654 499 q 361 703 497 703 q 145 601 224 703 q 67 357 67 500 q 145 113 67 214 q 361 11 224 11 z "},"p":{"ha":746,"x_min":76,"x_max":697,"o":"m 669 358 q 598 603 669 504 q 393 703 526 703 q 183 603 261 703 q 104 358 104 503 q 182 103 104 194 q 393 11 260 11 q 599 115 529 11 q 669 358 669 219 m 104 -246 l 76 -246 l 76 714 l 104 714 l 104 514 q 210 671 135 611 q 393 731 286 731 q 615 626 532 731 q 697 358 697 522 q 616 92 697 200 q 393 -17 535 -17 q 208 42 282 -17 q 107 200 133 100 l 104 -246 z "},"q":{"ha":746,"x_min":39,"x_max":660,"o":"m 632 714 l 660 714 l 660 -246 l 632 -246 l 632 200 q 529 42 604 100 q 343 -17 454 -17 q 120 92 201 -17 q 39 358 39 200 q 121 627 39 524 q 343 731 203 731 q 526 672 450 731 q 629 514 601 613 l 632 714 m 343 703 q 139 603 211 703 q 67 358 67 504 q 136 115 67 218 q 343 11 206 11 q 553 103 475 11 q 632 358 632 194 q 554 603 632 504 q 343 703 476 703 z "},"r":{"ha":360,"x_min":76,"x_max":388,"o":"m 104 0 l 76 0 l 76 714 l 104 714 l 104 538 q 197 678 128 625 q 388 731 265 731 l 388 703 q 176 617 249 703 q 104 404 104 532 l 104 0 z "},"s":{"ha":643,"x_min":42,"x_max":589,"o":"m 542 503 q 480 653 542 604 q 311 703 418 703 q 153 661 210 703 q 97 551 97 619 q 117 471 97 500 q 169 429 136 442 q 256 402 203 417 q 405 363 308 388 q 545 295 501 338 q 589 182 589 253 q 513 33 589 82 q 331 -17 436 -17 q 114 47 186 -17 q 42 244 42 110 l 69 244 q 136 69 69 126 q 331 11 203 11 q 491 53 421 11 q 561 179 561 94 q 504 292 561 263 q 350 347 447 322 q 219 381 253 371 q 127 417 185 392 q 69 551 69 442 q 129 676 69 621 q 311 731 189 731 q 502 675 435 731 q 569 503 569 619 l 542 503 z "},"t":{"ha":335,"x_min":-7,"x_max":314,"o":"m 153 686 l 153 139 q 178 48 153 68 q 249 28 204 28 q 310 32 297 28 l 310 4 q 278 2 300 4 q 242 0 257 0 q 156 30 186 0 q 125 133 125 60 l 125 686 l -7 686 l -7 714 l 125 714 l 125 939 l 153 939 l 153 714 l 314 714 l 314 686 l 153 686 z "},"u":{"ha":694,"x_min":76,"x_max":618,"o":"m 618 0 l 590 0 l 590 176 q 500 37 567 90 q 331 -17 433 -17 q 147 51 217 -17 q 76 240 76 118 l 76 714 l 104 714 l 104 244 q 169 70 104 129 q 331 11 233 11 q 522 97 454 11 q 590 310 590 182 l 590 714 l 618 714 l 618 0 z "},"v":{"ha":565,"x_min":-17,"x_max":582,"o":"m 551 714 l 582 714 l 313 0 l 278 0 l -17 714 l 17 714 l 293 28 l 551 714 z "},"w":{"ha":951,"x_min":-11,"x_max":963,"o":"m 935 714 l 963 714 l 735 0 l 699 0 l 476 686 l 250 0 l 211 0 l -11 714 l 17 714 l 229 28 l 453 714 l 496 714 l 715 28 l 935 714 z "},"x":{"ha":565,"x_min":-21,"x_max":586,"o":"m 528 714 l 561 714 l 300 369 l 586 0 l 551 0 l 282 349 l 14 0 l -21 0 l 265 369 l 6 714 l 42 714 l 282 390 l 528 714 z "},"y":{"ha":565,"x_min":-17,"x_max":582,"o":"m 553 714 l 582 714 l 253 -146 q 185 -228 228 -211 q 64 -246 143 -246 l 64 -218 q 175 -203 143 -218 q 231 -126 207 -187 l 282 7 l -17 714 l 14 714 l 297 38 l 553 714 z "},"z":{"ha":565,"x_min":7,"x_max":558,"o":"m 558 28 l 558 0 l 7 0 l 7 35 l 507 686 l 44 686 l 44 714 l 536 714 l 536 679 l 36 28 l 558 28 z "},"{":{"ha":463,"x_min":118,"x_max":389,"o":"m 319 -246 q 241 -209 264 -246 q 218 -92 218 -172 l 218 135 q 198 282 218 228 q 118 375 178 336 l 118 403 q 190 478 161 410 q 218 635 218 546 l 218 864 q 240 981 218 946 q 319 1015 261 1015 l 389 1015 l 389 988 l 322 988 q 263 956 281 988 q 246 839 246 924 l 246 611 q 222 473 246 538 q 146 386 197 408 q 218 301 190 365 q 246 158 246 238 l 246 -67 q 263 -187 246 -157 q 322 -218 281 -218 l 389 -218 l 389 -246 l 319 -246 z "},"|":{"ha":308,"x_min":140,"x_max":168,"o":"m 140 -24 l 140 1015 l 168 1015 l 168 -24 l 140 -24 z "},"}":{"ha":463,"x_min":74,"x_max":344,"o":"m 143 1015 q 222 978 199 1015 q 244 861 244 942 l 244 635 q 265 488 244 542 q 344 394 285 433 l 344 367 q 273 292 301 360 q 244 135 244 224 l 244 -94 q 223 -211 244 -176 q 143 -246 201 -246 l 74 -246 l 74 -218 l 140 -218 q 199 -186 182 -218 q 217 -69 217 -154 l 217 158 q 241 297 217 232 q 317 383 265 361 q 244 468 272 404 q 217 611 217 532 l 217 836 q 199 957 217 926 q 140 988 182 988 l 74 988 l 74 1015 l 143 1015 z "},"~":{"ha":833,"x_min":107,"x_max":726,"o":"m 726 410 q 658 321 690 351 q 575 290 625 290 q 499 309 540 290 q 440 335 458 328 q 351 374 385 361 q 271 386 317 386 q 194 360 225 386 q 135 285 164 335 l 107 293 q 176 381 136 347 q 271 414 215 414 q 345 401 306 414 q 445 363 385 389 q 529 327 506 336 q 576 318 553 318 q 640 344 613 318 q 699 418 668 371 l 726 410 z "},"Ä":{"ha":799,"x_min":-17,"x_max":814,"o":"m 642 354 l 406 964 l 158 354 l 642 354 m 147 326 l 15 0 l -17 0 l 386 992 l 422 992 l 814 0 l 783 0 l 653 326 l 147 326 m 278 1067 l 278 1179 l 306 1179 l 306 1067 l 278 1067 m 494 1067 l 494 1179 l 522 1179 l 522 1067 l 494 1067 z "},"Å":{"ha":799,"x_min":-17,"x_max":814,"o":"m 642 354 l 406 964 l 158 354 l 642 354 m 147 326 l 15 0 l -17 0 l 386 992 l 422 992 l 814 0 l 783 0 l 653 326 l 147 326 m 400 1022 q 314 1058 350 1022 q 278 1144 278 1094 q 314 1231 278 1194 q 400 1267 350 1267 q 486 1231 450 1267 q 522 1144 522 1194 q 486 1058 522 1094 q 400 1022 450 1022 m 400 1239 q 333 1211 361 1239 q 306 1144 306 1183 q 333 1078 306 1106 q 400 1050 361 1050 q 467 1078 439 1050 q 494 1144 494 1106 q 467 1211 494 1183 q 400 1239 439 1239 z "},"Ç":{"ha":951,"x_min":35,"x_max":919,"o":"m 869 694 q 758 899 860 810 q 501 988 657 988 q 171 831 279 988 q 63 488 63 675 q 176 146 63 288 q 483 4 290 4 q 762 110 656 4 q 892 389 868 217 l 919 389 q 781 90 893 203 q 490 -24 669 -24 l 450 -78 q 473 -72 463 -75 q 496 -69 483 -69 q 571 -90 542 -69 q 600 -153 600 -110 q 563 -232 600 -210 q 464 -254 525 -254 q 397 -244 432 -254 q 350 -231 363 -235 l 363 -204 q 423 -222 403 -218 q 464 -226 443 -226 q 540 -210 508 -226 q 572 -153 572 -193 q 547 -112 572 -128 q 496 -97 521 -97 q 421 -115 451 -97 l 400 -101 l 461 -22 q 153 122 272 -22 q 35 488 35 267 q 151 856 35 697 q 501 1015 267 1015 q 789 910 681 1015 q 897 694 897 804 l 869 694 z "},"É":{"ha":746,"x_min":75,"x_max":739,"o":"m 103 28 l 739 28 l 739 0 l 75 0 l 75 992 l 733 992 l 733 964 l 103 964 l 103 531 l 696 531 l 696 503 l 103 503 l 103 28 m 521 1263 l 318 1063 l 297 1063 l 481 1263 l 521 1263 z "},"Ñ":{"ha":900,"x_min":75,"x_max":825,"o":"m 75 992 l 117 992 l 794 35 l 797 992 l 825 992 l 825 0 l 783 0 l 106 957 l 103 0 l 75 0 l 75 992 m 267 1083 q 297 1158 267 1122 q 361 1193 326 1193 q 455 1153 390 1193 q 538 1113 519 1113 q 587 1135 568 1113 q 606 1189 606 1158 l 633 1189 q 608 1115 633 1146 q 538 1085 583 1085 q 445 1125 504 1085 q 361 1165 386 1165 q 315 1138 335 1165 q 294 1083 294 1111 l 267 1083 z "},"Ö":{"ha":1001,"x_min":44,"x_max":958,"o":"m 501 4 q 815 141 699 4 q 931 496 931 278 q 815 851 931 714 q 501 988 699 988 q 188 851 304 988 q 72 496 72 714 q 188 141 72 278 q 501 4 304 4 m 501 1015 q 838 867 717 1015 q 958 496 958 718 q 838 125 958 274 q 501 -24 717 -24 q 165 125 286 -24 q 44 496 44 274 q 165 867 44 718 q 501 1015 286 1015 m 379 1067 l 379 1179 l 407 1179 l 407 1067 l 379 1067 m 596 1067 l 596 1179 l 624 1179 l 624 1067 l 596 1067 z "},"Ü":{"ha":878,"x_min":75,"x_max":803,"o":"m 775 992 l 803 992 l 803 369 q 709 76 803 175 q 439 -24 615 -24 q 75 369 75 -24 l 75 992 l 103 992 l 103 369 q 186 97 103 190 q 439 4 269 4 q 692 97 608 4 q 775 369 775 189 l 775 992 m 317 1067 l 317 1179 l 344 1179 l 344 1067 l 317 1067 m 533 1067 l 533 1179 l 561 1179 l 561 1067 l 533 1067 z "},"á":{"ha":668,"x_min":31,"x_max":674,"o":"m 556 419 q 477 377 535 392 q 276 363 419 363 q 117 323 176 363 q 58 176 58 283 q 108 59 58 107 q 267 11 158 11 q 478 93 400 11 q 556 288 556 175 l 556 419 m 75 493 q 147 665 75 599 q 347 731 218 731 q 518 683 453 731 q 583 526 583 636 l 583 72 q 599 35 583 46 q 640 25 615 25 q 657 25 649 25 q 674 28 668 28 l 674 0 l 653 0 q 574 17 593 0 q 556 69 556 35 l 556 163 q 453 36 531 89 q 269 -17 375 -17 q 96 33 161 -17 q 31 176 31 83 q 100 343 31 296 q 276 390 169 390 q 497 410 439 390 q 556 506 556 429 q 515 648 556 593 q 347 703 475 703 q 169 648 235 703 q 103 493 103 593 l 75 493 m 482 985 l 279 785 l 258 785 l 442 985 l 482 985 z "},"à":{"ha":668,"x_min":31,"x_max":674,"o":"m 556 419 q 477 377 535 392 q 276 363 419 363 q 117 323 176 363 q 58 176 58 283 q 108 59 58 107 q 267 11 158 11 q 478 93 400 11 q 556 288 556 175 l 556 419 m 75 493 q 147 665 75 599 q 347 731 218 731 q 518 683 453 731 q 583 526 583 636 l 583 72 q 599 35 583 46 q 640 25 615 25 q 657 25 649 25 q 674 28 668 28 l 674 0 l 653 0 q 574 17 593 0 q 556 69 556 35 l 556 163 q 453 36 531 89 q 269 -17 375 -17 q 96 33 161 -17 q 31 176 31 83 q 100 343 31 296 q 276 390 169 390 q 497 410 439 390 q 556 506 556 429 q 515 648 556 593 q 347 703 475 703 q 169 648 235 703 q 103 493 103 593 l 75 493 m 192 985 l 232 985 l 406 785 l 385 785 l 192 985 z "},"â":{"ha":668,"x_min":31,"x_max":674,"o":"m 556 419 q 477 377 535 392 q 276 363 419 363 q 117 323 176 363 q 58 176 58 283 q 108 59 58 107 q 267 11 158 11 q 478 93 400 11 q 556 288 556 175 l 556 419 m 75 493 q 147 665 75 599 q 347 731 218 731 q 518 683 453 731 q 583 526 583 636 l 583 72 q 599 35 583 46 q 640 25 615 25 q 657 25 649 25 q 674 28 668 28 l 674 0 l 653 0 q 574 17 593 0 q 556 69 556 35 l 556 163 q 453 36 531 89 q 269 -17 375 -17 q 96 33 161 -17 q 31 176 31 83 q 100 343 31 296 q 276 390 169 390 q 497 410 439 390 q 556 506 556 429 q 515 648 556 593 q 347 703 475 703 q 169 648 235 703 q 103 493 103 593 l 75 493 m 475 792 l 332 963 l 194 792 l 167 792 l 324 985 l 344 985 l 503 792 l 475 792 z "},"ä":{"ha":668,"x_min":31,"x_max":674,"o":"m 556 419 q 477 377 535 392 q 276 363 419 363 q 117 323 176 363 q 58 176 58 283 q 108 59 58 107 q 267 11 158 11 q 478 93 400 11 q 556 288 556 175 l 556 419 m 75 493 q 147 665 75 599 q 347 731 218 731 q 518 683 453 731 q 583 526 583 636 l 583 72 q 599 35 583 46 q 640 25 615 25 q 657 25 649 25 q 674 28 668 28 l 674 0 l 653 0 q 574 17 593 0 q 556 69 556 35 l 556 163 q 453 36 531 89 q 269 -17 375 -17 q 96 33 161 -17 q 31 176 31 83 q 100 343 31 296 q 276 390 169 390 q 497 410 439 390 q 556 506 556 429 q 515 648 556 593 q 347 703 475 703 q 169 648 235 703 q 103 493 103 593 l 75 493 m 213 789 l 213 901 l 240 901 l 240 789 l 213 789 m 429 789 l 429 901 l 457 901 l 457 789 l 429 789 z "},"ã":{"ha":668,"x_min":31,"x_max":674,"o":"m 556 419 q 477 377 535 392 q 276 363 419 363 q 117 323 176 363 q 58 176 58 283 q 108 59 58 107 q 267 11 158 11 q 478 93 400 11 q 556 288 556 175 l 556 419 m 75 493 q 147 665 75 599 q 347 731 218 731 q 518 683 453 731 q 583 526 583 636 l 583 72 q 599 35 583 46 q 640 25 615 25 q 657 25 649 25 q 674 28 668 28 l 674 0 l 653 0 q 574 17 593 0 q 556 69 556 35 l 556 163 q 453 36 531 89 q 269 -17 375 -17 q 96 33 161 -17 q 31 176 31 83 q 100 343 31 296 q 276 390 169 390 q 497 410 439 390 q 556 506 556 429 q 515 648 556 593 q 347 703 475 703 q 169 648 235 703 q 103 493 103 593 l 75 493 m 151 806 q 181 880 151 844 q 246 915 211 915 q 340 875 275 915 q 422 835 404 835 q 472 858 453 835 q 490 911 490 881 l 518 911 q 493 838 518 868 q 422 807 468 807 q 330 847 389 807 q 246 888 271 888 q 199 860 219 888 q 179 806 179 833 l 151 806 z "},"å":{"ha":668,"x_min":31,"x_max":674,"o":"m 556 419 q 477 377 535 392 q 276 363 419 363 q 117 323 176 363 q 58 176 58 283 q 108 59 58 107 q 267 11 158 11 q 478 93 400 11 q 556 288 556 175 l 556 419 m 75 493 q 147 665 75 599 q 347 731 218 731 q 518 683 453 731 q 583 526 583 636 l 583 72 q 599 35 583 46 q 640 25 615 25 q 657 25 649 25 q 674 28 668 28 l 674 0 l 653 0 q 574 17 593 0 q 556 69 556 35 l 556 163 q 453 36 531 89 q 269 -17 375 -17 q 96 33 161 -17 q 31 176 31 83 q 100 343 31 296 q 276 390 169 390 q 497 410 439 390 q 556 506 556 429 q 515 648 556 593 q 347 703 475 703 q 169 648 235 703 q 103 493 103 593 l 75 493 m 335 814 q 249 850 285 814 q 213 936 213 886 q 249 1022 213 986 q 335 1058 285 1058 q 421 1022 385 1058 q 457 936 457 986 q 421 850 457 886 q 335 814 385 814 m 335 1031 q 268 1003 296 1031 q 240 936 240 975 q 268 869 240 897 q 335 842 296 842 q 401 869 374 842 q 429 936 429 897 q 401 1003 429 975 q 335 1031 374 1031 z "},"ç":{"ha":694,"x_min":43,"x_max":651,"o":"m 651 243 q 563 55 640 125 q 368 -15 486 -15 l 322 -78 q 345 -72 335 -75 q 368 -69 356 -69 q 443 -90 414 -69 q 472 -153 472 -110 q 435 -232 472 -210 q 336 -254 397 -254 q 269 -244 304 -254 q 222 -231 235 -235 l 235 -204 q 295 -222 275 -218 q 336 -226 315 -226 q 413 -210 381 -226 q 444 -153 444 -193 q 419 -112 444 -128 q 368 -97 393 -97 q 293 -115 324 -97 l 272 -101 l 340 -14 q 124 90 204 -14 q 43 342 43 193 q 128 619 43 508 q 376 731 213 731 q 557 669 481 731 q 646 497 633 607 l 618 497 q 535 650 603 597 q 376 703 468 703 q 145 595 219 703 q 71 342 71 488 q 147 107 71 203 q 360 11 224 11 q 546 75 468 11 q 624 243 624 139 l 651 243 z "},"é":{"ha":694,"x_min":35,"x_max":660,"o":"m 632 379 q 558 611 632 519 q 350 703 485 703 q 147 614 231 703 q 63 379 63 525 l 632 379 m 63 351 q 131 103 63 196 q 344 11 199 11 q 531 72 457 11 q 624 247 606 133 l 651 247 q 553 55 638 126 q 347 -17 469 -17 q 112 85 189 -17 q 35 357 35 188 q 126 629 35 528 q 347 731 218 731 q 581 622 503 731 q 660 351 660 513 l 63 351 m 494 985 l 292 785 l 271 785 l 454 985 l 494 985 z "},"è":{"ha":694,"x_min":35,"x_max":660,"o":"m 632 379 q 558 611 632 519 q 350 703 485 703 q 147 614 231 703 q 63 379 63 525 l 632 379 m 63 351 q 131 103 63 196 q 344 11 199 11 q 531 72 457 11 q 624 247 606 133 l 651 247 q 553 55 638 126 q 347 -17 469 -17 q 112 85 189 -17 q 35 357 35 188 q 126 629 35 528 q 347 731 218 731 q 581 622 503 731 q 660 351 660 513 l 63 351 m 204 985 l 244 985 l 418 785 l 397 785 l 204 985 z "},"ê":{"ha":694,"x_min":35,"x_max":660,"o":"m 632 379 q 558 611 632 519 q 350 703 485 703 q 147 614 231 703 q 63 379 63 525 l 632 379 m 63 351 q 131 103 63 196 q 344 11 199 11 q 531 72 457 11 q 624 247 606 133 l 651 247 q 553 55 638 126 q 347 -17 469 -17 q 112 85 189 -17 q 35 357 35 188 q 126 629 35 528 q 347 731 218 731 q 581 622 503 731 q 660 351 660 513 l 63 351 m 488 792 l 344 963 l 207 792 l 179 792 l 336 985 l 357 985 l 515 792 l 488 792 z "},"ë":{"ha":694,"x_min":35,"x_max":660,"o":"m 632 379 q 558 611 632 519 q 350 703 485 703 q 147 614 231 703 q 63 379 63 525 l 632 379 m 63 351 q 131 103 63 196 q 344 11 199 11 q 531 72 457 11 q 624 247 606 133 l 651 247 q 553 55 638 126 q 347 -17 469 -17 q 112 85 189 -17 q 35 357 35 188 q 126 629 35 528 q 347 731 218 731 q 581 622 503 731 q 660 351 660 513 l 63 351 m 225 789 l 225 901 l 253 901 l 253 789 l 225 789 m 442 789 l 442 901 l 469 901 l 469 789 l 442 789 z "},"í":{"ha":181,"x_min":14,"x_max":238,"o":"m 76 0 l 76 714 l 104 714 l 104 0 l 76 0 m 238 985 l 35 785 l 14 785 l 197 985 l 238 985 z "},"ì":{"ha":181,"x_min":-53,"x_max":161,"o":"m 76 0 l 76 714 l 104 714 l 104 0 l 76 0 m -53 985 l -12 985 l 161 785 l 140 785 l -53 985 z "},"î":{"ha":181,"x_min":-78,"x_max":258,"o":"m 76 0 l 76 714 l 104 714 l 104 0 l 76 0 m 231 792 l 88 963 l -50 792 l -78 792 l 79 985 l 100 985 l 258 792 l 231 792 z "},"ï":{"ha":181,"x_min":-32,"x_max":213,"o":"m 76 0 l 76 714 l 104 714 l 104 0 l 76 0 m -32 789 l -32 901 l -4 901 l -4 789 l -32 789 m 185 789 l 185 901 l 213 901 l 213 789 l 185 789 z "},"ñ":{"ha":694,"x_min":76,"x_max":618,"o":"m 76 714 l 104 714 l 104 538 q 194 677 128 624 q 364 731 261 731 q 548 663 478 731 q 618 474 618 596 l 618 0 l 590 0 l 590 469 q 526 644 590 585 q 364 703 461 703 q 172 617 240 703 q 104 404 104 532 l 104 0 l 76 0 l 76 714 m 164 806 q 194 880 164 844 q 258 915 224 915 q 352 875 288 915 q 435 835 417 835 q 484 858 465 835 q 503 911 503 881 l 531 911 q 506 838 531 868 q 435 807 481 807 q 342 847 401 807 q 258 888 283 888 q 212 860 232 888 q 192 806 192 833 l 164 806 z "},"ó":{"ha":721,"x_min":39,"x_max":682,"o":"m 361 731 q 597 622 511 731 q 682 357 682 513 q 596 92 682 201 q 360 -17 510 -17 q 124 92 210 -17 q 39 357 39 200 q 124 622 39 513 q 361 731 210 731 m 361 11 q 576 112 499 11 q 654 357 654 213 q 576 601 654 499 q 361 703 497 703 q 145 601 224 703 q 67 357 67 500 q 145 113 67 214 q 361 11 224 11 m 508 985 l 306 785 l 285 785 l 468 985 l 508 985 z "},"ò":{"ha":721,"x_min":39,"x_max":682,"o":"m 361 731 q 597 622 511 731 q 682 357 682 513 q 596 92 682 201 q 360 -17 510 -17 q 124 92 210 -17 q 39 357 39 200 q 124 622 39 513 q 361 731 210 731 m 361 11 q 576 112 499 11 q 654 357 654 213 q 576 601 654 499 q 361 703 497 703 q 145 601 224 703 q 67 357 67 500 q 145 113 67 214 q 361 11 224 11 m 218 985 l 258 985 l 432 785 l 411 785 l 218 985 z "},"ô":{"ha":721,"x_min":39,"x_max":682,"o":"m 361 731 q 597 622 511 731 q 682 357 682 513 q 596 92 682 201 q 360 -17 510 -17 q 124 92 210 -17 q 39 357 39 200 q 124 622 39 513 q 361 731 210 731 m 361 11 q 576 112 499 11 q 654 357 654 213 q 576 601 654 499 q 361 703 497 703 q 145 601 224 703 q 67 357 67 500 q 145 113 67 214 q 361 11 224 11 m 501 792 l 358 963 l 221 792 l 193 792 l 350 985 l 371 985 l 529 792 l 501 792 z "},"ö":{"ha":721,"x_min":39,"x_max":682,"o":"m 361 731 q 597 622 511 731 q 682 357 682 513 q 596 92 682 201 q 360 -17 510 -17 q 124 92 210 -17 q 39 357 39 200 q 124 622 39 513 q 361 731 210 731 m 361 11 q 576 112 499 11 q 654 357 654 213 q 576 601 654 499 q 361 703 497 703 q 145 601 224 703 q 67 357 67 500 q 145 113 67 214 q 361 11 224 11 m 239 789 l 239 901 l 267 901 l 267 789 l 239 789 m 456 789 l 456 901 l 483 901 l 483 789 l 456 789 z "},"õ":{"ha":721,"x_min":39,"x_max":682,"o":"m 361 731 q 597 622 511 731 q 682 357 682 513 q 596 92 682 201 q 360 -17 510 -17 q 124 92 210 -17 q 39 357 39 200 q 124 622 39 513 q 361 731 210 731 m 361 11 q 576 112 499 11 q 654 357 654 213 q 576 601 654 499 q 361 703 497 703 q 145 601 224 703 q 67 357 67 500 q 145 113 67 214 q 361 11 224 11 m 178 806 q 208 880 178 844 q 272 915 238 915 q 366 875 301 915 q 449 835 431 835 q 498 858 479 835 q 517 911 517 881 l 544 911 q 519 838 544 868 q 449 807 494 807 q 356 847 415 807 q 272 888 297 888 q 226 860 246 888 q 206 806 206 833 l 178 806 z "},"ú":{"ha":694,"x_min":76,"x_max":618,"o":"m 618 0 l 590 0 l 590 176 q 500 37 567 90 q 331 -17 433 -17 q 147 51 217 -17 q 76 240 76 118 l 76 714 l 104 714 l 104 244 q 169 70 104 129 q 331 11 233 11 q 522 97 454 11 q 590 310 590 182 l 590 714 l 618 714 l 618 0 m 494 985 l 292 785 l 271 785 l 454 985 l 494 985 z "},"ù":{"ha":694,"x_min":76,"x_max":618,"o":"m 618 0 l 590 0 l 590 176 q 500 37 567 90 q 331 -17 433 -17 q 147 51 217 -17 q 76 240 76 118 l 76 714 l 104 714 l 104 244 q 169 70 104 129 q 331 11 233 11 q 522 97 454 11 q 590 310 590 182 l 590 714 l 618 714 l 618 0 m 204 985 l 244 985 l 418 785 l 397 785 l 204 985 z "},"û":{"ha":694,"x_min":76,"x_max":618,"o":"m 618 0 l 590 0 l 590 176 q 500 37 567 90 q 331 -17 433 -17 q 147 51 217 -17 q 76 240 76 118 l 76 714 l 104 714 l 104 244 q 169 70 104 129 q 331 11 233 11 q 522 97 454 11 q 590 310 590 182 l 590 714 l 618 714 l 618 0 m 488 792 l 344 963 l 207 792 l 179 792 l 336 985 l 357 985 l 515 792 l 488 792 z "},"ü":{"ha":694,"x_min":76,"x_max":618,"o":"m 618 0 l 590 0 l 590 176 q 500 37 567 90 q 331 -17 433 -17 q 147 51 217 -17 q 76 240 76 118 l 76 714 l 104 714 l 104 244 q 169 70 104 129 q 331 11 233 11 q 522 97 454 11 q 590 310 590 182 l 590 714 l 618 714 l 618 0 m 225 789 l 225 901 l 253 901 l 253 789 l 225 789 m 442 789 l 442 901 l 469 901 l 469 789 l 442 789 z "},"†":{"ha":772,"x_min":83,"x_max":689,"o":"m 400 992 l 400 654 l 689 654 l 689 626 l 400 626 l 400 -194 l 372 -194 l 372 626 l 83 626 l 83 654 l 372 654 l 372 992 l 400 992 z "},"°":{"ha":556,"x_min":79,"x_max":476,"o":"m 278 933 q 158 882 210 933 q 107 763 107 831 q 157 639 107 689 q 278 589 207 589 q 400 639 351 589 q 449 763 449 689 q 400 883 449 833 q 278 933 351 933 m 278 561 q 137 619 194 561 q 79 763 79 676 q 136 903 79 844 q 278 961 193 961 q 418 903 360 961 q 476 763 476 844 q 419 620 476 679 q 278 561 361 561 z "},"¢":{"ha":772,"x_min":82,"x_max":690,"o":"m 378 701 q 180 599 250 701 q 110 358 110 496 q 179 115 110 218 q 378 11 249 11 l 378 701 m 406 11 l 413 11 q 583 76 514 11 q 663 243 651 140 l 690 243 q 599 53 676 122 q 406 -17 522 -17 l 406 -168 l 378 -168 l 378 -17 q 160 94 238 -17 q 82 358 82 206 q 160 619 82 508 q 378 729 239 729 l 378 851 l 406 851 l 406 729 q 594 669 518 729 q 683 497 671 608 l 656 497 q 573 649 640 597 q 406 701 506 701 l 406 11 z "},"£":{"ha":772,"x_min":54,"x_max":754,"o":"m 411 507 l 411 479 l 204 479 q 235 391 225 442 q 246 290 246 340 q 210 147 246 213 q 108 25 175 82 l 111 22 q 176 60 142 46 q 253 74 211 74 q 332 60 290 74 q 410 32 374 46 q 474 11 446 18 q 524 4 503 4 q 629 31 585 4 q 736 119 674 58 l 754 100 q 642 5 696 33 q 524 -24 588 -24 q 452 -13 485 -24 q 385 11 419 -3 q 290 42 307 38 q 253 46 274 46 q 163 28 204 46 q 79 -24 122 11 l 54 4 q 172 139 126 65 q 218 290 218 213 q 174 479 218 404 l 68 479 l 68 507 l 160 507 q 96 635 129 567 q 63 757 63 704 q 154 948 63 881 q 376 1015 246 1015 q 612 935 525 1015 q 699 715 699 856 l 696 667 l 668 667 q 669 690 669 678 q 669 708 669 701 q 590 915 669 843 q 376 988 511 988 q 173 931 256 988 q 90 757 90 874 q 128 623 90 694 q 192 507 167 551 l 411 507 z "},"§":{"ha":772,"x_min":79,"x_max":693,"o":"m 586 758 q 531 927 586 867 q 374 988 476 988 q 244 950 303 988 q 185 828 185 913 q 206 749 185 779 q 258 695 226 718 q 365 628 289 672 q 519 534 440 585 q 645 424 597 483 q 693 283 693 365 q 640 163 693 215 q 531 94 586 111 q 597 14 581 53 q 613 -76 613 -25 q 546 -215 613 -168 q 386 -262 479 -262 q 206 -192 269 -262 q 143 7 143 -122 l 171 7 q 222 -170 171 -106 q 386 -235 274 -235 q 534 -184 483 -235 q 585 -76 585 -133 q 565 17 585 -18 q 490 92 546 51 q 340 190 433 132 q 193 284 247 247 q 109 372 139 321 q 79 486 79 422 q 124 603 79 549 q 231 679 169 657 q 178 743 199 707 q 157 831 157 779 q 227 974 157 932 q 376 1015 297 1015 q 549 945 485 1015 q 614 758 614 875 l 586 758 m 436 554 q 333 615 403 575 q 256 660 264 654 q 157 598 207 644 q 107 475 107 551 q 134 384 107 431 q 224 297 161 338 q 377 199 286 257 q 504 114 468 140 q 612 172 558 126 q 665 285 665 218 q 620 410 665 356 q 436 554 575 465 z "},"•":{"ha":694,"x_min":100,"x_max":596,"o":"m 347 743 q 523 672 450 743 q 596 496 596 600 q 524 319 596 392 q 347 247 451 247 q 172 319 244 247 q 100 496 100 392 q 172 671 100 599 q 347 743 244 743 z "},"¶":{"ha":833,"x_min":92,"x_max":682,"o":"m 682 992 l 682 -194 l 654 -194 l 654 964 l 428 964 l 428 -194 l 400 -194 l 400 456 q 178 533 265 456 q 92 719 92 610 q 173 920 92 849 q 401 992 254 992 l 682 992 z "},"ß":{"ha":668,"x_min":76,"x_max":628,"o":"m 281 565 q 475 615 401 565 q 549 779 549 664 q 484 926 549 872 q 321 981 419 981 q 171 938 238 981 q 104 768 104 894 l 104 0 l 76 0 l 76 772 q 147 951 76 894 q 321 1008 218 1008 q 501 947 426 1008 q 576 779 576 885 q 532 630 576 690 q 400 556 488 569 q 572 474 515 543 q 628 292 628 406 q 548 75 628 150 q 281 0 468 0 l 281 28 q 519 85 438 28 q 600 292 600 142 q 518 485 600 433 q 281 538 436 538 l 281 565 z "},"®":{"ha":1111,"x_min":36,"x_max":1075,"o":"m 381 785 l 576 785 q 774 624 774 785 q 729 510 774 551 q 618 468 685 468 l 801 188 l 767 188 l 588 465 l 544 464 l 408 464 l 408 188 l 381 188 l 381 785 m 553 492 q 690 518 635 492 q 746 624 746 544 q 698 728 746 699 q 574 757 650 757 l 408 757 l 408 492 l 553 492 m 556 1015 q 924 864 772 1015 q 1075 496 1075 713 q 924 128 1075 279 q 556 -24 772 -24 q 188 128 339 -24 q 36 496 36 279 q 188 864 36 713 q 556 1015 339 1015 m 556 4 q 903 148 760 4 q 1047 496 1047 292 q 903 844 1047 700 q 556 988 760 988 q 208 844 351 988 q 64 496 64 700 q 208 148 64 292 q 556 4 351 4 z "},"©":{"ha":1111,"x_min":36,"x_max":1075,"o":"m 796 594 q 719 729 783 682 q 567 776 654 776 q 367 696 440 776 q 293 489 293 615 q 368 278 293 363 q 571 194 443 194 q 712 244 649 194 q 796 383 775 294 l 824 383 q 733 226 801 286 q 571 167 665 167 q 349 258 433 167 q 265 488 265 349 q 346 716 265 628 q 567 804 426 804 q 739 749 668 804 q 824 594 810 693 l 796 594 m 556 1015 q 924 864 772 1015 q 1075 496 1075 713 q 924 128 1075 279 q 556 -24 772 -24 q 188 128 339 -24 q 36 496 36 279 q 188 864 36 713 q 556 1015 339 1015 m 556 4 q 903 148 760 4 q 1047 496 1047 292 q 903 844 1047 700 q 556 988 760 988 q 208 844 351 988 q 64 496 64 700 q 208 148 64 292 q 556 4 351 4 z "},"™":{"ha":1375,"x_min":114,"x_max":1233,"o":"m 322 964 l 114 964 l 114 992 l 558 992 l 558 964 l 350 964 l 350 419 l 322 419 l 322 964 m 689 992 l 736 992 l 961 458 l 1186 992 l 1233 992 l 1233 419 l 1206 419 l 1206 964 l 975 419 l 947 419 l 719 964 l 717 419 l 689 419 l 689 992 z "},"´":{"ha":181,"x_min":14,"x_max":238,"o":"m 238 1015 l 35 815 l 14 815 l 197 1015 l 238 1015 z "},"¨":{"ha":181,"x_min":-32,"x_max":213,"o":"m -32 819 l -32 932 l -4 932 l -4 819 l -32 819 m 185 819 l 185 932 l 213 932 l 213 819 l 185 819 z "},"≠":{"ha":763,"x_min":63,"x_max":700,"o":"m 574 467 l 700 467 l 700 378 l 493 378 l 392 278 l 700 278 l 700 189 l 310 189 l 146 25 l 86 86 l 189 189 l 63 189 l 63 278 l 271 278 l 372 378 l 63 378 l 63 467 l 453 467 l 617 631 l 678 569 l 574 467 z "},"Æ":{"ha":1183,"x_min":-17,"x_max":1160,"o":"m 215 381 l 14 0 l -17 0 l 508 992 l 1160 992 l 1160 964 l 615 964 l 615 531 l 1115 531 l 1115 503 l 615 503 l 615 28 l 1160 28 l 1160 0 l 588 0 l 588 381 l 215 381 m 522 967 l 229 408 l 588 408 l 588 967 l 522 967 z "},"Ø":{"ha":1001,"x_min":44,"x_max":958,"o":"m 807 857 q 674 953 751 919 q 501 988 596 988 q 188 851 304 988 q 72 496 72 714 q 99 309 72 394 q 176 158 125 224 l 807 857 m 194 138 q 326 38 250 72 q 501 4 403 4 q 815 141 699 4 q 931 496 931 278 q 825 835 931 703 l 194 138 m 157 136 q 74 298 103 204 q 44 496 44 392 q 165 867 44 718 q 501 1015 286 1015 q 686 980 606 1015 q 826 878 767 944 l 908 968 l 929 951 l 844 857 q 958 496 958 715 q 838 125 958 274 q 501 -24 717 -24 q 316 13 399 -24 q 175 117 233 49 l 76 7 l 56 24 l 157 136 z "},"∞":{"ha":990,"x_min":74,"x_max":915,"o":"m 532 376 q 613 279 564 314 q 719 247 661 247 q 837 296 792 247 q 882 421 882 344 q 840 545 882 499 q 729 592 799 592 q 631 542 678 592 q 532 376 583 492 m 458 454 q 376 551 422 518 q 271 583 331 583 q 154 535 200 583 q 108 410 108 486 q 149 287 108 335 q 256 239 190 239 q 355 283 311 239 q 458 454 399 326 m 508 331 q 409 201 463 244 q 290 158 356 158 q 136 231 199 158 q 74 414 74 304 q 131 601 74 529 q 276 672 188 672 q 391 631 342 672 q 482 500 440 590 q 578 629 525 586 q 700 672 632 672 q 851 599 788 672 q 915 417 915 525 q 859 230 915 301 q 714 158 803 158 q 597 200 650 158 q 508 331 547 243 z "},"±":{"ha":833,"x_min":67,"x_max":767,"o":"m 403 703 l 431 703 l 431 428 l 767 428 l 767 400 l 431 400 l 431 125 l 403 125 l 403 400 l 67 400 l 67 428 l 403 428 l 403 703 m 67 28 l 767 28 l 767 0 l 67 0 l 67 28 z "},"≤":{"ha":763,"x_min":60,"x_max":703,"o":"m 703 25 l 60 25 l 60 119 l 703 119 l 703 25 m 225 389 l 703 240 l 703 143 l 61 344 l 61 435 l 703 636 l 703 539 l 225 389 z "},"≥":{"ha":763,"x_min":60,"x_max":703,"o":"m 703 25 l 60 25 l 60 119 l 703 119 l 703 25 m 703 344 l 60 143 l 60 240 l 538 389 l 60 539 l 60 636 l 703 435 l 703 344 z "},"¥":{"ha":772,"x_min":29,"x_max":743,"o":"m 399 282 l 603 282 l 603 254 l 399 254 l 399 0 l 371 0 l 371 254 l 167 254 l 167 282 l 371 282 l 371 424 l 167 424 l 167 451 l 358 451 l 29 992 l 60 992 l 385 460 l 713 992 l 743 992 l 414 451 l 603 451 l 603 424 l 399 424 l 399 282 z "},"µ":{"ha":772,"x_min":115,"x_max":656,"o":"m 656 0 l 628 0 l 628 176 q 538 37 606 90 q 368 -17 469 -17 q 235 15 294 -17 q 146 113 175 46 l 143 -246 l 115 -246 l 115 714 l 142 714 l 142 244 q 206 70 142 129 q 368 11 271 11 q 560 97 492 11 q 628 310 628 182 l 628 714 l 656 714 l 656 0 z "},"∂":{"ha":686,"x_min":86,"x_max":606,"o":"m 356 485 q 236 401 283 485 q 189 178 189 318 q 219 56 189 99 q 306 13 249 13 q 426 99 379 13 q 474 311 474 185 q 444 438 474 392 q 356 485 414 485 m 497 399 q 506 438 503 418 q 510 481 510 457 l 514 604 q 492 779 514 722 q 426 836 471 836 q 357 788 401 836 q 279 739 313 739 q 244 749 257 739 q 228 783 231 760 q 270 853 228 824 q 369 882 313 882 q 524 807 476 882 q 589 664 572 732 q 606 510 606 596 q 516 133 606 283 q 297 -18 426 -18 q 144 53 203 -18 q 86 243 86 124 q 160 442 86 357 q 333 528 233 528 q 434 497 394 528 q 497 399 474 467 z "},"Σ":{"ha":990,"x_min":50,"x_max":918,"o":"m 858 893 l 879 714 l 818 714 q 700 914 774 860 q 465 968 626 968 l 282 968 l 719 369 l 242 -178 l 501 -178 q 741 -134 671 -178 q 856 28 811 -90 l 918 28 l 876 -153 l 874 -162 q 719 -300 842 -300 l 50 -300 l 590 319 l 69 1033 l 708 1033 q 822 1013 799 1033 q 858 893 846 994 z "},"∏":{"ha":1143,"x_min":42,"x_max":1107,"o":"m 164 -244 l 164 978 l 42 978 l 42 1033 l 1107 1033 l 1107 978 l 985 978 l 985 -244 l 1107 -244 l 1107 -300 l 740 -300 l 740 -244 l 857 -244 l 857 978 l 292 978 l 292 -244 l 408 -244 l 408 -300 l 42 -300 l 42 -244 l 164 -244 z "},"π":{"ha":763,"x_min":24,"x_max":731,"o":"m 561 518 l 560 485 l 556 276 l 556 221 q 567 75 556 104 q 610 46 579 46 q 667 86 649 46 q 690 210 690 129 l 725 210 l 725 203 q 689 39 725 92 q 578 -14 653 -14 q 467 42 500 -14 q 435 269 435 97 l 436 378 l 440 522 l 371 524 l 264 526 q 232 94 264 201 q 121 -14 200 -14 q 48 26 72 -14 q 24 146 24 67 l 24 172 l 57 172 q 70 117 57 135 q 108 100 83 100 q 184 165 167 100 q 209 319 201 231 q 217 526 217 407 l 186 526 q 103 508 133 526 q 65 453 74 489 l 33 453 q 47 533 33 500 q 98 594 61 565 q 254 624 135 624 l 396 619 l 607 615 q 676 625 654 615 q 699 654 697 635 l 731 656 q 698 549 731 582 q 594 517 665 517 l 575 517 l 561 518 z "},"∫":{"ha":381,"x_min":-125,"x_max":506,"o":"m 393 1051 q 474 1026 443 1051 q 506 958 506 1000 q 488 911 506 931 q 438 892 469 892 q 376 936 397 892 q 336 981 356 981 q 257 550 257 981 l 253 414 q 247 247 253 326 q 227 69 240 168 q 184 -97 214 -29 q 101 -208 154 -165 q -12 -251 47 -251 q -93 -226 -61 -251 q -125 -158 -125 -200 q -108 -110 -125 -128 q -57 -93 -90 -93 q 4 -136 -17 -93 q 46 -181 25 -179 q 125 269 125 -181 l 128 386 q 133 547 128 469 q 152 724 139 625 q 196 894 165 824 q 278 1008 226 965 q 393 1051 331 1051 z "},"ª":{"ha":417,"x_min":0,"x_max":417,"o":"m 342 767 q 271 739 324 743 q 160 729 218 735 q 65 703 103 724 q 28 626 28 682 q 65 560 28 582 q 156 538 101 538 q 292 583 242 538 q 342 700 342 629 l 342 767 m 417 519 q 360 526 379 519 q 342 563 342 532 l 342 619 l 339 610 q 156 510 307 510 q 44 538 88 510 q 0 626 0 567 q 47 730 0 701 q 171 758 94 758 l 204 758 q 317 774 292 758 q 342 821 342 789 q 310 907 342 881 q 207 933 278 933 q 57 817 72 933 l 29 817 q 207 961 44 961 q 326 933 282 961 q 369 838 369 904 l 369 574 q 397 544 369 544 q 417 547 403 544 l 417 519 z "},"º":{"ha":417,"x_min":0,"x_max":418,"o":"m 210 961 q 363 896 307 961 q 418 738 418 831 q 363 576 418 643 q 208 510 307 510 q 56 576 113 510 q 0 738 0 643 q 56 897 0 832 q 210 961 111 961 m 210 538 q 341 597 292 538 q 390 738 390 657 q 341 874 390 815 q 210 933 292 933 q 77 875 126 933 q 28 738 28 817 q 77 597 28 657 q 210 538 126 538 z "},"Ω":{"ha":1067,"x_min":69,"x_max":997,"o":"m 824 125 q 918 151 890 125 q 946 244 946 178 l 978 244 l 978 0 l 600 0 l 600 250 q 770 356 707 271 q 833 567 833 442 q 751 801 833 714 q 533 888 669 888 q 315 801 397 888 q 233 567 233 714 q 295 357 233 442 q 467 250 357 272 l 467 0 l 89 0 l 89 244 l 121 244 q 147 151 121 178 q 243 125 174 125 l 414 125 l 414 207 q 160 331 250 236 q 69 567 69 425 q 198 836 69 735 q 533 938 326 938 q 869 835 740 938 q 997 567 997 733 q 908 333 997 428 q 653 207 819 239 l 653 125 l 824 125 z "},"æ":{"ha":1235,"x_min":44,"x_max":1190,"o":"m 1163 379 q 1091 611 1163 519 q 885 703 1019 703 q 675 615 753 703 q 597 379 597 528 l 1163 379 m 569 419 q 491 377 549 392 q 290 363 433 363 q 131 323 190 363 q 72 176 72 283 q 122 59 72 107 q 281 11 172 11 q 492 93 414 11 q 569 288 569 175 l 569 419 m 89 493 q 160 665 89 599 q 361 731 232 731 q 533 683 468 731 q 597 522 597 635 q 703 673 629 615 q 885 731 778 731 q 1114 623 1038 731 q 1190 351 1190 515 l 597 351 q 667 105 597 199 q 882 11 738 11 q 1068 73 992 11 q 1158 247 1144 135 l 1186 247 q 1092 56 1175 129 q 882 -17 1008 -17 q 692 43 767 -17 q 588 215 617 103 q 481 46 565 108 q 283 -17 397 -17 q 110 33 175 -17 q 44 176 44 83 q 114 343 44 296 q 290 390 183 390 q 511 410 453 390 q 569 506 569 429 q 529 648 569 593 q 361 703 489 703 q 183 648 249 703 q 117 493 117 593 l 89 493 z "},"ø":{"ha":721,"x_min":25,"x_max":682,"o":"m 572 603 q 482 676 536 650 q 361 703 428 703 q 145 601 224 703 q 67 357 67 500 q 128 138 67 231 l 572 603 m 144 115 q 236 38 182 65 q 361 11 290 11 q 576 112 499 11 q 654 357 654 213 q 638 476 654 418 q 589 581 621 533 l 144 115 m 656 689 l 675 669 l 610 601 q 682 357 682 501 q 596 92 682 201 q 360 -17 510 -17 q 226 12 285 -17 q 124 93 167 40 l 44 11 l 25 31 l 108 117 q 57 227 75 164 q 39 357 39 290 q 124 622 39 513 q 361 731 210 731 q 492 703 435 731 q 593 624 550 676 l 656 689 z "},"¿":{"ha":694,"x_min":71,"x_max":646,"o":"m 646 68 q 567 -172 646 -82 q 344 -262 489 -262 q 148 -201 225 -262 q 71 -32 71 -140 q 108 111 71 58 q 206 217 144 164 q 314 349 285 293 q 343 500 343 406 l 371 500 q 343 344 371 406 q 256 226 315 283 q 158 132 196 168 q 99 -32 99 57 q 167 -181 99 -128 q 344 -235 235 -235 q 549 -153 479 -235 q 618 68 618 -72 l 646 68 m 372 753 l 372 617 l 344 617 l 344 753 l 372 753 z "},"¡":{"ha":257,"x_min":115,"x_max":143,"o":"m 143 753 l 143 617 l 115 617 l 115 753 l 143 753 m 143 500 l 143 -246 l 115 -246 l 115 500 l 143 500 z "},"¬":{"ha":833,"x_min":67,"x_max":767,"o":"m 739 472 l 67 472 l 67 500 l 767 500 l 767 129 l 739 129 l 739 472 z "},"√":{"ha":763,"x_min":-19,"x_max":825,"o":"m 825 1061 l 746 1061 l 343 -28 l 299 -28 l 82 571 l -3 540 l -19 594 l 172 661 l 346 181 l 696 1126 l 825 1126 l 825 1061 z "},"ƒ":{"ha":772,"x_min":18,"x_max":679,"o":"m 263 -76 q 206 -199 249 -151 q 88 -246 164 -246 q 51 -244 67 -246 q 18 -237 35 -243 l 25 -210 q 83 -218 54 -218 q 184 -180 149 -218 q 233 -71 219 -142 l 360 571 l 194 571 l 200 599 l 365 599 l 419 869 q 481 980 435 944 q 603 1015 528 1015 q 642 1014 629 1015 q 679 1006 656 1013 l 674 979 q 637 985 656 982 q 600 988 618 988 q 498 958 533 988 q 447 854 463 929 l 396 599 l 572 599 l 567 571 l 390 571 l 263 -76 z "},"≈":{"ha":763,"x_min":21,"x_max":742,"o":"m 21 139 l 21 246 q 142 308 89 289 q 244 326 194 326 q 404 293 306 326 q 542 260 503 260 q 627 281 581 260 q 742 353 674 301 l 742 244 q 635 187 683 206 q 535 168 588 168 q 390 201 490 168 q 229 233 290 233 q 155 218 190 233 q 88 184 119 203 q 21 139 57 165 m 21 304 l 21 411 q 81 446 53 431 q 151 476 110 461 q 243 490 193 490 q 402 458 301 490 q 542 425 503 425 q 625 445 579 425 q 742 517 671 465 l 742 410 q 685 376 717 393 q 617 347 653 360 q 535 333 581 333 q 390 366 489 333 q 236 399 290 399 q 144 380 188 399 q 21 304 101 361 z "},"∆":{"ha":850,"x_min":29,"x_max":826,"o":"m 128 63 l 646 63 l 388 700 l 128 63 m 826 0 l 29 0 l 413 933 l 443 933 l 826 0 z "},"«":{"ha":489,"x_min":92,"x_max":364,"o":"m 235 168 l 92 361 l 92 383 l 235 576 l 235 528 l 119 372 l 235 217 l 235 168 m 364 168 l 221 361 l 221 383 l 364 576 l 364 528 l 249 372 l 364 217 l 364 168 z "},"»":{"ha":489,"x_min":125,"x_max":397,"o":"m 254 576 l 397 383 l 397 361 l 254 168 l 254 217 l 369 372 l 254 528 l 254 576 m 125 576 l 268 383 l 268 361 l 125 168 l 125 217 l 240 372 l 125 528 l 125 576 z "},"…":{"ha":1389,"x_min":218,"x_max":1171,"o":"m 246 0 l 218 0 l 218 136 l 246 136 l 246 0 m 708 0 l 681 0 l 681 136 l 708 136 l 708 0 m 1171 0 l 1143 0 l 1143 136 l 1171 136 l 1171 0 z "}," ":{"ha":347,"x_min":0,"x_max":0,"o":""},"À":{"ha":799,"x_min":-17,"x_max":814,"o":"m 642 354 l 406 964 l 158 354 l 642 354 m 147 326 l 15 0 l -17 0 l 386 992 l 422 992 l 814 0 l 783 0 l 653 326 l 147 326 m 257 1263 l 297 1263 l 471 1063 l 450 1063 l 257 1263 z "},"Ã":{"ha":799,"x_min":-17,"x_max":814,"o":"m 642 354 l 406 964 l 158 354 l 642 354 m 147 326 l 15 0 l -17 0 l 386 992 l 422 992 l 814 0 l 783 0 l 653 326 l 147 326 m 217 1083 q 247 1158 217 1122 q 311 1193 276 1193 q 405 1153 340 1193 q 488 1113 469 1113 q 537 1135 518 1113 q 556 1189 556 1158 l 583 1189 q 558 1115 583 1146 q 488 1085 533 1085 q 395 1125 454 1085 q 311 1165 336 1165 q 265 1138 285 1165 q 244 1083 244 1111 l 217 1083 z "},"Õ":{"ha":1001,"x_min":44,"x_max":958,"o":"m 501 4 q 815 141 699 4 q 931 496 931 278 q 815 851 931 714 q 501 988 699 988 q 188 851 304 988 q 72 496 72 714 q 188 141 72 278 q 501 4 304 4 m 501 1015 q 838 867 717 1015 q 958 496 958 718 q 838 125 958 274 q 501 -24 717 -24 q 165 125 286 -24 q 44 496 44 274 q 165 867 44 718 q 501 1015 286 1015 m 318 1083 q 348 1158 318 1122 q 413 1193 378 1193 q 506 1153 442 1193 q 589 1113 571 1113 q 638 1135 619 1113 q 657 1189 657 1158 l 685 1189 q 660 1115 685 1146 q 589 1085 635 1085 q 497 1125 556 1085 q 413 1165 438 1165 q 366 1138 386 1165 q 346 1083 346 1111 l 318 1083 z "},"Œ":{"ha":1415,"x_min":44,"x_max":1378,"o":"m 1311 531 l 1311 503 l 803 503 l 803 28 l 1378 28 l 1378 0 l 775 0 l 775 90 q 649 5 719 33 q 503 -24 578 -24 q 165 124 286 -24 q 44 490 44 271 q 165 863 44 711 q 503 1015 285 1015 q 656 990 590 1015 q 775 901 721 964 l 775 992 l 1378 992 l 1378 964 l 803 964 l 803 531 l 1311 531 m 775 865 q 651 959 713 931 q 503 988 589 988 q 189 852 306 988 q 72 490 72 717 q 188 140 72 275 q 503 4 304 4 q 647 34 576 4 q 775 131 718 64 l 775 865 z "},"œ":{"ha":1236,"x_min":44,"x_max":1189,"o":"m 1161 379 q 1097 613 1161 524 q 899 703 1033 703 q 697 615 763 703 q 631 379 631 526 l 1161 379 m 338 703 q 138 603 203 703 q 72 357 72 503 q 138 111 72 211 q 338 11 203 11 q 541 108 479 11 q 603 357 603 204 q 540 605 603 507 q 338 703 476 703 m 631 351 q 696 97 631 183 q 897 11 761 11 q 1072 74 1011 11 q 1151 240 1133 138 l 1179 240 q 1088 52 1160 121 q 897 -17 1017 -17 q 707 44 779 -17 q 618 218 635 106 q 522 45 592 107 q 338 -17 453 -17 q 117 92 190 -17 q 44 357 44 201 q 116 622 44 513 q 338 731 188 731 q 524 663 450 731 q 614 486 599 596 q 706 664 636 597 q 897 731 775 731 q 1115 628 1042 731 q 1189 372 1189 525 l 1189 351 l 631 351 z "},"–":{"ha":694,"x_min":0,"x_max":694,"o":"m 0 386 l 694 386 l 694 358 l 0 358 l 0 386 z "},"—":{"ha":1389,"x_min":0,"x_max":1389,"o":"m 1389 358 l 0 358 l 0 386 l 1389 386 l 1389 358 z "},"“":{"ha":386,"x_min":115,"x_max":317,"o":"m 115 679 l 115 843 q 127 944 115 917 q 178 992 139 971 l 178 964 q 143 843 143 942 l 143 679 l 115 679 m 254 679 l 254 843 q 266 944 254 917 q 317 992 278 971 l 317 964 q 282 843 282 942 l 282 679 l 254 679 z "},"”":{"ha":386,"x_min":69,"x_max":271,"o":"m 271 992 l 271 828 q 259 727 271 754 q 208 679 247 700 l 208 707 q 243 828 243 729 l 243 992 l 271 992 m 132 992 l 132 828 q 120 727 132 754 q 69 679 108 700 l 69 707 q 104 828 104 729 l 104 992 l 132 992 z "},"‘":{"ha":232,"x_min":101,"x_max":164,"o":"m 101 679 l 101 843 q 113 944 101 917 q 164 992 125 971 l 164 964 q 129 843 129 942 l 129 679 l 101 679 z "},"’":{"ha":232,"x_min":68,"x_max":131,"o":"m 131 992 l 131 828 q 119 727 131 754 q 68 679 107 700 l 68 707 q 103 828 103 729 l 103 992 l 131 992 z "},"÷":{"ha":833,"x_min":67,"x_max":767,"o":"m 67 338 l 67 365 l 767 365 l 767 338 l 67 338 m 360 646 q 376 686 360 669 q 417 703 393 703 q 457 686 440 703 q 474 646 474 669 q 460 604 474 619 q 417 589 447 589 q 374 605 389 589 q 360 646 360 621 m 360 57 q 376 97 360 81 q 417 114 393 114 q 457 97 440 114 q 474 57 474 81 q 460 15 474 31 q 417 0 447 0 q 374 16 389 0 q 360 57 360 32 z "},"◊":{"ha":686,"x_min":4,"x_max":682,"o":"m 343 956 l 82 401 l 343 -158 l 604 401 l 343 956 m 343 1121 l 682 401 l 343 -324 l 4 401 l 343 1121 z "},"ÿ":{"ha":565,"x_min":-17,"x_max":582,"o":"m 553 714 l 582 714 l 253 -146 q 185 -228 228 -211 q 64 -246 143 -246 l 64 -218 q 175 -203 143 -218 q 231 -126 207 -187 l 282 7 l -17 714 l 14 714 l 297 38 l 553 714 m 161 819 l 161 932 l 189 932 l 189 819 l 161 819 m 378 819 l 378 932 l 406 932 l 406 819 l 378 819 z "},"Ÿ":{"ha":747,"x_min":-42,"x_max":789,"o":"m 756 992 l 789 992 l 388 418 l 388 0 l 360 0 l 360 418 l -42 992 l -7 992 l 374 447 l 756 992 m 251 1067 l 251 1179 l 279 1179 l 279 1067 l 251 1067 m 468 1067 l 468 1179 l 496 1179 l 496 1067 l 468 1067 z "},"∕":{"ha":232,"x_min":-231,"x_max":463,"o":"m 431 992 l 463 992 l -199 -47 l -231 -47 l 431 992 z "},"¤":{"ha":772,"x_min":42,"x_max":731,"o":"m 699 804 l 718 785 l 639 706 q 731 472 731 607 q 639 239 731 339 l 718 160 l 699 140 l 619 219 q 386 128 519 128 q 153 219 253 128 l 74 140 l 54 160 l 133 239 q 42 472 42 339 q 133 706 42 606 l 54 785 l 74 804 l 153 725 q 386 817 253 817 q 619 725 521 817 l 699 804 m 386 789 q 163 696 256 789 q 69 472 69 603 q 163 249 69 342 q 386 156 256 156 q 610 249 517 156 q 703 472 703 342 q 610 697 703 604 q 386 789 518 789 z "},"‹":{"ha":360,"x_min":92,"x_max":235,"o":"m 235 168 l 92 361 l 92 383 l 235 576 l 235 528 l 119 372 l 235 217 l 235 168 z "},"›":{"ha":360,"x_min":125,"x_max":268,"o":"m 125 576 l 268 383 l 268 361 l 125 168 l 125 217 l 240 372 l 125 528 l 125 576 z "},"":{"ha":463,"x_min":-1,"x_max":386,"o":"m 386 0 l 358 0 l 358 714 l 386 714 l 386 0 m 386 851 l 358 851 l 358 992 l 386 992 l 386 851 m -1 686 l -1 714 l 121 714 l 121 872 q 159 970 121 949 q 261 992 197 992 q 294 990 282 992 q 321 986 307 988 l 321 958 q 256 964 286 964 q 170 941 192 964 q 149 863 149 918 l 149 714 l 303 714 l 303 686 l 149 686 l 149 0 l 121 0 l 121 686 l -1 686 z "},"":{"ha":463,"x_min":-1,"x_max":386,"o":"m -1 686 l -1 714 l 121 714 l 121 872 q 159 970 121 949 q 261 992 197 992 q 294 990 282 992 q 321 986 307 988 l 321 958 q 256 964 286 964 q 170 941 192 964 q 149 863 149 918 l 149 714 l 303 714 l 303 686 l 149 686 l 149 0 l 121 0 l 121 686 l -1 686 m 386 0 l 358 0 l 358 992 l 386 992 l 386 0 z "},"‡":{"ha":772,"x_min":83,"x_max":689,"o":"m 83 79 l 83 107 l 372 107 l 372 690 l 83 690 l 83 718 l 372 718 l 372 992 l 400 992 l 400 718 l 689 718 l 689 690 l 400 690 l 400 107 l 689 107 l 689 79 l 400 79 l 400 -194 l 372 -194 l 372 79 l 83 79 z "},"∙":{"ha":386,"x_min":149,"x_max":238,"o":"m 193 517 q 238 472 238 517 q 193 428 238 428 q 149 472 149 428 q 193 517 149 517 z "},"‚":{"ha":232,"x_min":67,"x_max":129,"o":"m 129 136 l 129 0 q 116 -104 129 -67 q 67 -165 103 -142 l 67 -137 q 101 0 101 -104 l 101 136 l 129 136 z "},"„":{"ha":386,"x_min":69,"x_max":271,"o":"m 271 136 l 271 0 q 258 -104 271 -67 q 208 -165 244 -142 l 208 -137 q 243 0 243 -104 l 243 136 l 271 136 m 132 136 l 132 0 q 119 -104 132 -67 q 69 -165 106 -142 l 69 -137 q 104 0 104 -104 l 104 136 l 132 136 z "},"‰":{"ha":1440,"x_min":29,"x_max":1411,"o":"m 240 961 q 399 895 343 961 q 456 722 456 829 q 398 554 456 622 q 240 486 340 486 q 83 553 138 486 q 29 721 29 621 q 85 895 29 829 q 240 961 140 961 m 240 514 q 378 573 329 514 q 428 721 428 632 q 381 876 428 819 q 240 933 335 933 q 103 876 149 933 q 57 721 57 818 q 103 572 57 631 q 240 514 150 514 m 696 458 q 855 392 799 458 q 911 219 911 326 q 853 51 911 119 q 696 -17 796 -17 q 539 51 593 -17 q 485 218 485 118 q 540 392 485 326 q 696 458 596 458 m 696 11 q 834 70 785 11 q 883 218 883 129 q 837 374 883 317 q 696 431 790 431 q 558 373 604 431 q 513 218 513 315 q 559 69 513 128 q 696 11 606 11 m 1196 458 q 1355 392 1299 458 q 1411 219 1411 326 q 1353 51 1411 119 q 1196 -17 1296 -17 q 1039 51 1093 -17 q 985 218 985 118 q 1040 392 985 326 q 1196 458 1096 458 m 1196 11 q 1334 70 1285 11 q 1383 218 1383 129 q 1337 374 1383 317 q 1196 431 1290 431 q 1058 373 1104 431 q 1013 218 1013 315 q 1059 69 1013 128 q 1196 11 1106 11 m 785 992 l 817 992 l 156 -47 l 124 -47 l 785 992 z "},"Â":{"ha":799,"x_min":-17,"x_max":814,"o":"m 642 354 l 406 964 l 158 354 l 642 354 m 147 326 l 15 0 l -17 0 l 386 992 l 422 992 l 814 0 l 783 0 l 653 326 l 147 326 m 540 1069 l 397 1240 l 260 1069 l 232 1069 l 389 1263 l 410 1263 l 568 1069 l 540 1069 z "},"Ê":{"ha":746,"x_min":75,"x_max":739,"o":"m 103 28 l 739 28 l 739 0 l 75 0 l 75 992 l 733 992 l 733 964 l 103 964 l 103 531 l 696 531 l 696 503 l 103 503 l 103 28 m 514 1069 l 371 1240 l 233 1069 l 206 1069 l 363 1263 l 383 1263 l 542 1069 l 514 1069 z "},"Á":{"ha":799,"x_min":-17,"x_max":814,"o":"m 642 354 l 406 964 l 158 354 l 642 354 m 147 326 l 15 0 l -17 0 l 386 992 l 422 992 l 814 0 l 783 0 l 653 326 l 147 326 m 547 1263 l 344 1063 l 324 1063 l 507 1263 l 547 1263 z "},"Ë":{"ha":746,"x_min":75,"x_max":739,"o":"m 103 28 l 739 28 l 739 0 l 75 0 l 75 992 l 733 992 l 733 964 l 103 964 l 103 531 l 696 531 l 696 503 l 103 503 l 103 28 m 251 1067 l 251 1179 l 279 1179 l 279 1067 l 251 1067 m 468 1067 l 468 1179 l 496 1179 l 496 1067 l 468 1067 z "},"È":{"ha":746,"x_min":75,"x_max":739,"o":"m 103 28 l 739 28 l 739 0 l 75 0 l 75 992 l 733 992 l 733 964 l 103 964 l 103 531 l 696 531 l 696 503 l 103 503 l 103 28 m 231 1263 l 271 1263 l 444 1063 l 424 1063 l 231 1263 z "},"Í":{"ha":178,"x_min":13,"x_max":236,"o":"m 75 992 l 103 992 l 103 0 l 75 0 l 75 992 m 236 1263 l 33 1063 l 13 1063 l 196 1263 l 236 1263 z "},"Î":{"ha":178,"x_min":-79,"x_max":257,"o":"m 75 992 l 103 992 l 103 0 l 75 0 l 75 992 m 229 1069 l 86 1240 l -51 1069 l -79 1069 l 78 1263 l 99 1263 l 257 1069 l 229 1069 z "},"Ï":{"ha":178,"x_min":-33,"x_max":211,"o":"m 75 992 l 103 992 l 103 0 l 75 0 l 75 992 m -33 1067 l -33 1179 l -6 1179 l -6 1067 l -33 1067 m 183 1067 l 183 1179 l 211 1179 l 211 1067 l 183 1067 z "},"Ì":{"ha":178,"x_min":-54,"x_max":160,"o":"m 75 992 l 103 992 l 103 0 l 75 0 l 75 992 m -54 1263 l -14 1263 l 160 1063 l 139 1063 l -54 1263 z "},"Ó":{"ha":1001,"x_min":44,"x_max":958,"o":"m 501 4 q 815 141 699 4 q 931 496 931 278 q 815 851 931 714 q 501 988 699 988 q 188 851 304 988 q 72 496 72 714 q 188 141 72 278 q 501 4 304 4 m 501 1015 q 838 867 717 1015 q 958 496 958 718 q 838 125 958 274 q 501 -24 717 -24 q 165 125 286 -24 q 44 496 44 274 q 165 867 44 718 q 501 1015 286 1015 m 649 1263 l 446 1063 l 425 1063 l 608 1263 l 649 1263 z "},"Ô":{"ha":1001,"x_min":44,"x_max":958,"o":"m 501 4 q 815 141 699 4 q 931 496 931 278 q 815 851 931 714 q 501 988 699 988 q 188 851 304 988 q 72 496 72 714 q 188 141 72 278 q 501 4 304 4 m 501 1015 q 838 867 717 1015 q 958 496 958 718 q 838 125 958 274 q 501 -24 717 -24 q 165 125 286 -24 q 44 496 44 274 q 165 867 44 718 q 501 1015 286 1015 m 642 1069 l 499 1240 l 361 1069 l 333 1069 l 490 1263 l 511 1263 l 669 1069 l 642 1069 z "},"":{"ha":1097,"x_min":76,"x_max":1021,"o":"m 567 825 l 565 835 l 565 850 q 629 1006 565 935 q 790 1094 693 1076 l 790 1078 l 792 1053 q 722 894 792 964 q 583 824 651 824 l 578 824 l 567 825 m 1021 274 q 881 41 943 106 q 743 -24 818 -24 q 654 -1 708 -24 q 571 21 600 21 q 482 -1 539 21 q 396 -24 425 -24 q 308 6 354 -24 q 266 44 290 19 q 199 127 242 68 q 116 294 156 186 q 76 500 76 403 q 162 742 76 649 q 381 836 247 836 q 430 831 403 836 q 501 807 457 825 q 569 789 546 789 q 654 813 594 789 q 756 836 714 836 q 891 809 832 836 q 999 725 950 782 q 897 627 931 682 q 863 503 863 572 q 904 367 863 428 q 1021 274 946 306 z "},"Ò":{"ha":1001,"x_min":44,"x_max":958,"o":"m 501 4 q 815 141 699 4 q 931 496 931 278 q 815 851 931 714 q 501 988 699 988 q 188 851 304 988 q 72 496 72 714 q 188 141 72 278 q 501 4 304 4 m 501 1015 q 838 867 717 1015 q 958 496 958 718 q 838 125 958 274 q 501 -24 717 -24 q 165 125 286 -24 q 44 496 44 274 q 165 867 44 718 q 501 1015 286 1015 m 358 1263 l 399 1263 l 572 1063 l 551 1063 l 358 1263 z "},"Ú":{"ha":878,"x_min":75,"x_max":803,"o":"m 775 992 l 803 992 l 803 369 q 709 76 803 175 q 439 -24 615 -24 q 75 369 75 -24 l 75 992 l 103 992 l 103 369 q 186 97 103 190 q 439 4 269 4 q 692 97 608 4 q 775 369 775 189 l 775 992 m 586 1263 l 383 1063 l 363 1063 l 546 1263 l 586 1263 z "},"Û":{"ha":878,"x_min":75,"x_max":803,"o":"m 775 992 l 803 992 l 803 369 q 709 76 803 175 q 439 -24 615 -24 q 75 369 75 -24 l 75 992 l 103 992 l 103 369 q 186 97 103 190 q 439 4 269 4 q 692 97 608 4 q 775 369 775 189 l 775 992 m 579 1069 l 436 1240 l 299 1069 l 271 1069 l 428 1263 l 449 1263 l 607 1069 l 579 1069 z "},"Ù":{"ha":878,"x_min":75,"x_max":803,"o":"m 775 992 l 803 992 l 803 369 q 709 76 803 175 q 439 -24 615 -24 q 75 369 75 -24 l 75 992 l 103 992 l 103 369 q 186 97 103 190 q 439 4 269 4 q 692 97 608 4 q 775 369 775 189 l 775 992 m 296 1263 l 336 1263 l 510 1063 l 489 1063 l 296 1263 z "},"ı":{"ha":181,"x_min":76,"x_max":104,"o":"m 76 0 l 76 714 l 104 714 l 104 0 l 76 0 z "},"̂":{"ha":181,"x_min":-78,"x_max":258,"o":"m 231 822 l 88 993 l -50 822 l -78 822 l 79 1015 l 100 1015 l 258 822 l 231 822 z "},"̃":{"ha":181,"x_min":-93,"x_max":274,"o":"m -93 836 q -63 910 -93 875 q 1 946 -33 946 q 95 906 31 946 q 178 865 160 865 q 227 888 208 865 q 246 942 246 911 l 274 942 q 249 868 274 899 q 178 838 224 838 q 85 878 144 838 q 1 918 26 918 q -45 891 -25 918 q -65 836 -65 864 l -93 836 z "},"ˉ":{"ha":181,"x_min":-71,"x_max":251,"o":"m 251 872 l -71 872 l -71 900 l 251 900 l 251 872 z "},"˘":{"ha":181,"x_min":-81,"x_max":261,"o":"m -53 1015 q -8 927 -46 960 q 86 894 29 894 q 188 925 149 894 q 233 1015 228 956 l 261 1015 q 206 906 253 944 q 86 867 158 867 q -26 908 19 867 q -81 1015 -72 950 l -53 1015 z "},"˙":{"ha":181,"x_min":76,"x_max":104,"o":"m 104 932 l 104 819 l 76 819 l 76 932 l 104 932 z "},"˚":{"ha":181,"x_min":-32,"x_max":213,"o":"m 90 814 q 4 850 40 814 q -32 936 -32 886 q 4 1022 -32 986 q 90 1058 40 1058 q 176 1022 140 1058 q 213 936 213 986 q 176 850 213 886 q 90 814 140 814 m 90 1031 q 24 1003 51 1031 q -4 936 -4 975 q 24 869 -4 897 q 90 842 51 842 q 157 869 129 842 q 185 936 185 897 q 157 1003 185 975 q 90 1031 129 1031 z "},"¸":{"ha":181,"x_min":-35,"x_max":215,"o":"m -22 -204 q 38 -222 18 -218 q 79 -226 58 -226 q 156 -210 124 -226 q 188 -153 188 -193 q 162 -112 188 -128 q 111 -97 136 -97 q 36 -115 67 -97 l 15 -101 l 94 0 l 122 0 l 65 -78 q 88 -72 78 -75 q 111 -69 99 -69 q 186 -90 157 -69 q 215 -153 215 -110 q 178 -232 215 -210 q 79 -254 140 -254 q 13 -244 47 -254 q -35 -231 -22 -235 l -22 -204 z "},"ʺ":{"ha":181,"x_min":-62,"x_max":369,"o":"m 161 1015 l -42 815 l -62 815 l 121 1015 l 161 1015 m 369 1015 l 167 815 l 146 815 l 329 1015 l 369 1015 z "},"˛":{"ha":181,"x_min":-22,"x_max":213,"o":"m 153 0 q 40 -101 74 -60 q 6 -175 6 -142 q 25 -217 6 -199 q 82 -235 44 -235 q 147 -222 121 -235 q 189 -192 174 -210 l 213 -208 q 153 -250 186 -237 q 82 -262 119 -262 q 5 -237 32 -262 q -22 -176 -22 -211 q 15 -88 -22 -131 q 113 0 51 -46 l 153 0 z "},"ˇ":{"ha":181,"x_min":-78,"x_max":258,"o":"m -50 1015 l 93 844 l 231 1015 l 258 1015 l 101 822 l 81 822 l -78 1015 l -50 1015 z "}}}
